<!-- Generated by IcoMoon.io -->
<svg version="1.1" xmlns="http://www.w3.org/2000/svg" width="34" height="32" viewBox="0 0 34 32">
<title>panther-handpicked</title>
<path fill="#444" d="M0.124 2.692c0.457-1.728 4.726-2.833 6.489-2.678 3.35 0.294 6.7 0.658 10.050 1.050 1.352 0.16 2.338 1.196 2.618 2.647 0.443 2.302 0.857 4.611 1.218 6.927 0.115 0.73 0.385 1.125 1.117 1.352 3.668 1.134 7.32 2.326 10.979 3.489 1.091 0.347 1.606 1.072 1.412 2.024s-0.986 1.455-2.111 1.237c-4.372-0.845-8.736-1.73-13.106-2.601-1.333-0.266-2.668-0.524-3.998-0.806-0.804-0.17-1.498-0.026-1.988 0.67s-0.34 1.419 0.124 2.084c0.818 1.17 1.675 2.319 2.455 3.51 0.617 0.933 0.397 2.022-0.455 2.481-0.749 0.404-1.457 0.263-2.060-0.313-3.589-3.424-8.203-7.258-11.778-10.701-0.869-0.814-1.316-9.091-0.967-10.373z"></path>
<path fill="#444" d="M32.39 23.386c-0.644 0.124-1.218 0.239-1.792 0.342-0.563 0.075-1.041 0.385-1.34 0.826-0.216 0.301-0.343 0.668-0.343 1.065 0 0.375 0.113 0.723 0.307 1.013 0.326 0.529 0.909 0.881 1.574 0.881 0.114 0 0.227-0.010 0.335-0.030 0.541-0.094 1.089-0.206 1.64-0.312l0.333-0.065c-0.093 0.244-0.184 0.444-0.285 0.637-0.637 1.12-1.854 1.884-3.25 1.884-1.024 0-1.952-0.411-2.627-1.078-0.079-0.091-0.195-0.148-0.325-0.148-0.036 0-0.070 0.004-0.104 0.013q-5.919 1.148-11.847 2.28c-0.241 0.034-0.448 0.158-0.59 0.336-0.506 0.6-1.255 0.977-2.093 0.977-0.42 0-0.819-0.095-1.174-0.265-0.935-0.443-1.582-1.396-1.582-2.499 0-1.526 1.237-2.764 2.764-2.764 0.506 0 0.981 0.136 1.389 0.374 0.076 0.042 0.182 0.072 0.295 0.072 0.033 0 0.066-0.003 0.098-0.007q6.012-1.143 12.023-2.302c0.16-0.026 0.29-0.138 0.339-0.287 0.597-1.328 1.906-2.233 3.426-2.233 1.002 0 1.913 0.394 2.585 1.035 0.070 0.061 0.135 0.135 0.245 0.255zM12.089 30.306c0.838-0.179 0.605-0.024 0.897-0.694 0.194-0.443 0.112-0.735-0.201-1.094-0.198-0.225-0.486-0.366-0.807-0.366-0.468 0-0.866 0.299-1.014 0.717-0.061 0.124-0.095 0.262-0.095 0.407 0 0.266 0.115 0.506 0.298 0.672 0.295 0.317 0.549 0.568 0.922 0.357z"></path>
</svg>
