<!-- Generated by IcoMoon.io -->
<svg version="1.1" xmlns="http://www.w3.org/2000/svg" width="42" height="32" viewBox="0 0 42 32">
<title>panther-admin</title>
<path fill="#444" d="M21.227 0.003q9.355 0 18.708 0c2.127 0 2.25 0.113 2.25 2.288q0 11.777 0 23.552c0 2-0.18 2.172-2.215 2.175q-18.543 0-37.083 0c-2.455 0-2.877-0.45-2.877-2.942q0-11.275 0-22.55c0-2.192 0.325-2.52 2.515-2.52q9.348-0.010 18.703-0.003zM21.262 25.88c5.75 0 11.48-0.038 17.22 0.027 1.39 0.015 1.818-0.422 1.805-1.813q-0.093-10.113 0-20.227c0-1.385-0.425-1.817-1.813-1.813q-17.22 0.070-34.44 0c-1.402 0-1.813 0.453-1.803 1.822q0.085 10.113 0 20.227c-0.013 1.405 0.44 1.815 1.815 1.8 5.735-0.063 11.475-0.025 17.215-0.025z"></path>
<path fill="#444" d="M10.97 29.427h20.248v2.573h-20.247v-2.572z"></path>
<path fill="#444" d="M12.592 11.848h-1.412q-3.513 0-7.025 0c-0.165 0-0.228-0.037-0.217-0.193 0.013-0.273 0-0.545 0-0.818-0-0.007-0-0.016-0-0.024 0-0.307 0.163-0.575 0.407-0.724 0.657-0.472 1.401-0.906 2.185-1.267 0.222-0.074 0.321-0.199 0.321-0.348 0-0.013-0.001-0.026-0.002-0.039-0.015-0.391 0-0.786 0-1.181-0.025-0.102-0.066-0.191-0.122-0.27-0.099-0.14-0.176-0.307-0.221-0.487-0.030-0.568-0.025-1.125-0.002-1.683 0.022-0.75 0.628-1.305 1.445-1.37 0.53-0.042 1.052-0.035 1.5 0.29 0.376 0.252 0.62 0.676 0.62 1.156 0 0.002 0 0.005-0 0.007 0 0.5 0 1 0 1.5 0 0.008 0.001 0.018 0.001 0.028 0 0.231-0.105 0.438-0.269 0.576-0.052 0.048-0.085 0.114-0.089 0.188-0 0.443-0 0.886-0 1.328 0.001 0.111 0.079 0.204 0.183 0.227 0.867 0.401 1.605 0.829 2.299 1.314 0.229 0.122 0.414 0.413 0.414 0.747 0 0.020-0.001 0.039-0.002 0.059-0.025 0.33-0.012 0.645-0.012 0.982z"></path>
<path fill="#444" d="M24.92 11.848h-1.413q-3.512 0-7.025 0c-0.165 0-0.227-0.037-0.218-0.193 0.012-0.273 0-0.545 0-0.818-0-0.007-0-0.016-0-0.024 0-0.307 0.163-0.575 0.407-0.724 0.657-0.472 1.401-0.906 2.185-1.267 0.222-0.074 0.321-0.199 0.321-0.348 0-0.013-0.001-0.026-0.002-0.039-0.015-0.391 0-0.786 0-1.181-0.025-0.102-0.066-0.191-0.122-0.27-0.099-0.14-0.176-0.307-0.221-0.487-0.030-0.568-0.025-1.125-0.002-1.683 0.023-0.75 0.628-1.305 1.445-1.37 0.53-0.042 1.052-0.035 1.5 0.29 0.375 0.252 0.619 0.673 0.62 1.152 0 0.5 0 1 0 1.5 0 0.008 0.001 0.018 0.001 0.028 0 0.231-0.105 0.438-0.269 0.576-0.052 0.048-0.084 0.114-0.089 0.188-0 0.443-0 0.886-0 1.328 0.001 0.111 0.079 0.204 0.183 0.227 0.867 0.401 1.605 0.829 2.299 1.314 0.23 0.122 0.414 0.413 0.414 0.747 0 0.020-0.001 0.039-0.002 0.059-0.030 0.34-0.012 0.655-0.012 0.992z"></path>
<path fill="#444" d="M37.727 11.848h-1.413q-3.513 0-7.025 0c-0.165 0-0.227-0.037-0.218-0.193 0.012-0.273 0-0.545 0-0.818-0-0.007-0-0.016-0-0.024 0-0.307 0.163-0.575 0.407-0.724 0.657-0.472 1.401-0.906 2.185-1.267 0.222-0.074 0.321-0.199 0.321-0.348 0-0.013-0.001-0.026-0.002-0.039-0.015-0.391 0-0.786 0-1.181-0.025-0.102-0.066-0.191-0.122-0.27-0.099-0.14-0.176-0.307-0.221-0.487-0.030-0.568-0.025-1.125-0.002-1.683 0.023-0.75 0.627-1.305 1.445-1.37 0.53-0.042 1.053-0.035 1.5 0.29 0.375 0.252 0.619 0.673 0.62 1.152 0 0.5 0 1 0 1.5 0 0.008 0.001 0.018 0.001 0.028 0 0.231-0.105 0.438-0.269 0.576-0.052 0.048-0.084 0.114-0.089 0.188-0 0.443-0 0.886-0 1.328 0.001 0.111 0.079 0.204 0.183 0.227 0.867 0.401 1.605 0.829 2.299 1.314 0.23 0.122 0.414 0.413 0.414 0.747 0 0.020-0.001 0.039-0.002 0.059-0.030 0.34-0.012 0.655-0.012 0.992z"></path>
<path fill="#444" d="M12.355 22.898h-1.412q-3.513 0-7.025 0c-0.165 0-0.228-0.038-0.217-0.192 0.013-0.273 0-0.545 0-0.817-0-0.007-0-0.016-0-0.024 0-0.307 0.163-0.575 0.407-0.724 0.657-0.472 1.401-0.906 2.185-1.267 0.222-0.074 0.321-0.199 0.321-0.348 0-0.013-0.001-0.026-0.002-0.039-0.015-0.391 0-0.786 0-1.181-0.025-0.102-0.066-0.191-0.122-0.27-0.099-0.14-0.176-0.307-0.221-0.487-0.030-0.568-0.025-1.125-0.002-1.683 0.022-0.75 0.628-1.305 1.445-1.37 0.53-0.043 1.052-0.035 1.5 0.29 0.375 0.252 0.619 0.673 0.62 1.152 0 0.5 0 1 0 1.5 0 0.008 0.001 0.018 0.001 0.028 0 0.231-0.105 0.438-0.269 0.576-0.052 0.048-0.085 0.114-0.089 0.188-0 0.443-0 0.886-0 1.328 0.001 0.111 0.079 0.204 0.183 0.227 0.867 0.401 1.605 0.829 2.299 1.314 0.229 0.122 0.414 0.413 0.414 0.747 0 0.020-0.001 0.039-0.002 0.059-0.025 0.352-0.012 0.667-0.012 0.992z"></path>
<path fill="#444" d="M24.68 22.898h-1.413q-3.512 0-7.025 0c-0.165 0-0.227-0.038-0.218-0.192 0.012-0.273 0-0.545 0-0.817-0-0.007-0-0.016-0-0.024 0-0.307 0.163-0.575 0.407-0.724 0.657-0.472 1.401-0.906 2.185-1.267 0.222-0.074 0.321-0.199 0.321-0.348 0-0.013-0.001-0.026-0.002-0.039-0.015-0.391 0-0.786 0-1.181-0.025-0.102-0.066-0.191-0.122-0.27-0.099-0.14-0.176-0.307-0.221-0.487-0.030-0.568-0.025-1.125-0.002-1.683 0.023-0.75 0.628-1.305 1.445-1.37 0.53-0.043 1.052-0.035 1.5 0.29 0.375 0.252 0.619 0.673 0.62 1.152 0 0.5 0 1 0 1.5 0 0.008 0.001 0.018 0.001 0.028 0 0.231-0.105 0.438-0.269 0.576-0.052 0.048-0.084 0.114-0.089 0.188-0 0.443-0 0.886-0 1.328 0.001 0.111 0.079 0.204 0.183 0.227 0.867 0.401 1.605 0.829 2.299 1.314 0.23 0.122 0.414 0.413 0.414 0.747 0 0.020-0.001 0.039-0.002 0.059-0.030 0.352-0.012 0.667-0.012 0.992z"></path>
<path fill="#444" d="M37.485 22.898h-1.413q-3.513 0-7.025 0c-0.165 0-0.227-0.038-0.218-0.192 0.012-0.273 0-0.545 0-0.817-0-0.007-0-0.016-0-0.024 0-0.307 0.163-0.575 0.407-0.724 0.657-0.472 1.401-0.906 2.185-1.267 0.222-0.074 0.321-0.199 0.321-0.348 0-0.013-0.001-0.026-0.002-0.039-0.015-0.391 0-0.786 0-1.181-0.025-0.102-0.066-0.191-0.122-0.27-0.099-0.14-0.176-0.307-0.221-0.487-0.030-0.568-0.025-1.125-0.002-1.683 0.023-0.75 0.627-1.305 1.445-1.37 0.53-0.043 1.053-0.035 1.5 0.29 0.375 0.252 0.619 0.673 0.62 1.152 0 0.5 0 1 0 1.5 0 0.008 0.001 0.018 0.001 0.028 0 0.231-0.105 0.438-0.269 0.576-0.052 0.048-0.084 0.114-0.089 0.188-0 0.443-0 0.886-0 1.328 0.001 0.111 0.079 0.204 0.183 0.227 0.867 0.401 1.605 0.829 2.299 1.314 0.23 0.122 0.414 0.413 0.414 0.747 0 0.020-0.001 0.039-0.002 0.059-0.030 0.352-0.012 0.667-0.012 0.992z"></path>
</svg>
