<!-- Generated by IcoMoon.io -->
<svg version="1.1" xmlns="http://www.w3.org/2000/svg" width="34" height="32" viewBox="0 0 34 32">
<title>panther-matcher</title>
<path fill="#444" d="M10.651 13.068h13.426v1.79h-13.426v-1.79z"></path>
<path fill="#444" d="M10.651 18.975h13.426v2.148h-13.426v-2.148z"></path>
<path fill="#444" d="M3.704 0c-0.081 0.87-0.149 1.647-0.227 2.422s0.043 1.448 0.503 2.037c0.641 0.818 1.457 1.104 2.413 0.836 0.906-0.254 1.565-1.088 1.677-2.102 0.082-0.741 0.143-1.486 0.213-2.229l0.041-0.449c0.222 0.186 0.423 0.374 0.613 0.573 0.887 1.054 1.379 2.278 1.292 3.723-0.111 1.833-0.917 3.21-2.379 4.128-0.18 0.095-0.302 0.279-0.31 0.491q-0.738 8.006-1.495 16.010c-0.007 0.052-0.011 0.111-0.011 0.172 0 0.26 0.076 0.503 0.208 0.707 0.342 0.564 0.546 1.253 0.546 1.989 0 0.924-0.322 1.773-0.86 2.44-0.589 0.756-1.509 1.243-2.542 1.243-0.928 0-1.765-0.393-2.353-1.021-0.639-0.699-1.030-1.631-1.030-2.655 0-1.043 0.405-1.991 1.067-2.696 0.118-0.127 0.2-0.294 0.225-0.479q0.774-8.126 1.531-16.25c0.003-0.022 0.005-0.047 0.005-0.073 0-0.188-0.088-0.355-0.225-0.463-2.42-2.269-2.055-6.435 0.706-8.141 0.104-0.064 0.215-0.118 0.392-0.215zM4.685 28.592c0.084-1.139 0.179-0.782-0.499-1.411-0.451-0.415-0.823-0.426-1.355-0.163s-0.705 0.56-0.763 1.165 0.086 0.943 0.537 1.301 0.814 0.43 1.332 0.147c0.483-0.261 0.866-0.489 0.748-1.040z"></path>
<path fill="#444" d="M30.949 0.215c2.76 1.706 3.126 5.868 0.716 8.134-0.138 0.109-0.227 0.276-0.227 0.464 0 0.026 0.002 0.051 0.005 0.076q0.769 8.119 1.53 16.242c0.025 0.189 0.107 0.356 0.228 0.486 0.659 0.702 1.065 1.65 1.065 2.693 0 1.024-0.39 1.956-1.031 2.656-0.587 0.627-1.424 1.020-2.353 1.020-1.032 0-1.951-0.485-2.541-1.24-0.543-0.669-0.869-1.523-0.869-2.452 0-0.73 0.201-1.414 0.551-1.998 0.117-0.18 0.193-0.422 0.193-0.681 0-0.065-0.005-0.129-0.014-0.191q-0.756-7.997-1.494-16.002c-0.007-0.214-0.13-0.397-0.307-0.491-1.464-0.918-2.271-2.295-2.382-4.13-0.088-1.445 0.405-2.669 1.289-3.72 0.192-0.202 0.393-0.391 0.604-0.567l0.053 0.44c0.070 0.743 0.129 1.488 0.213 2.229 0.113 1.011 0.773 1.847 1.677 2.102 0.956 0.269 1.772-0.018 2.413-0.836 0.46-0.587 0.582-1.284 0.503-2.037s-0.147-1.552-0.227-2.422c0.186 0.106 0.297 0.159 0.403 0.224zM30.317 29.63c0.517 0.283 0.868 0.217 1.332-0.147s0.6-0.693 0.537-1.301-0.249-0.911-0.763-1.165-0.895-0.252-1.355 0.163c-0.682 0.628-0.584 0.272-0.499 1.411-0.113 0.553 0.27 0.78 0.748 1.042z"></path>
</svg>
