<!-- Generated by IcoMoon.io -->
<svg version="1.1" xmlns="http://www.w3.org/2000/svg" width="31" height="32" viewBox="0 0 31 32">
<title>panther-timeline</title>
<path fill="#444" d="M15.185 0h1.675v30.478h-1.675v-30.478z"></path>
<path fill="#444" d="M0 15.427h10.331v7.034h-10.331v-7.034z"></path>
<path fill="#444" d="M0 2.127h10.211v7.034h-10.211v-7.034z"></path>
<path fill="#444" d="M9.687 4.764h5.498v1.759h-5.498v-1.759z"></path>
<path fill="#444" d="M10.343 18.064h4.844v1.759h-4.844v-1.759z"></path>
<path fill="#444" d="M16.86 12.526h4.189v1.759h-4.189v-1.759z"></path>
<path fill="#444" d="M21.051 9.924h10.211v7.034h-10.211v-7.034z"></path>
<path fill="#444" d="M9.815 26.144l6.977 4.679-0.739 1.102-6.977-4.679 0.739-1.102z"></path>
<path fill="#444" d="M23.046 27.318l-6.977 4.679-0.739-1.102 6.977-4.679 0.739 1.102z"></path>
</svg>
