<!-- Generated by IcoMoon.io -->
<svg version="1.1" xmlns="http://www.w3.org/2000/svg" width="39" height="32" viewBox="0 0 39 32">
<title>panther-table</title>
<path fill="#444" d="M38.183 9.481h-37.415c-0.423-0.001-0.766-0.345-0.766-0.768 0-0.203 0.079-0.387 0.207-0.525l7.379-7.852c0.194-0.207 0.469-0.336 0.773-0.336 0 0 0 0 0 0h22.305c0.218 0.001 0.415 0.092 0.554 0.239l7.522 7.944c0.131 0.138 0.211 0.324 0.211 0.529 0 0.424-0.344 0.768-0.768 0.768-0.001 0-0.002 0-0.003 0z"></path>
<path fill="#444" d="M0.524 9.796h37.532v2.483h-37.532v-2.483z"></path>
<path fill="#444" d="M1.288 12.595h3.756v19.405h-3.756v-19.405z"></path>
<path fill="#444" d="M33.537 12.595h3.756v19.405h-3.756v-19.405z"></path>
<path fill="#444" d="M6.504 12.595h2.417v9.7h-2.417v-9.7z"></path>
<path fill="#444" d="M29.084 12.595h2.417v9.7h-2.417v-9.7z"></path>
</svg>
