<!-- Generated by IcoMoon.io -->
<svg version="1.1" xmlns="http://www.w3.org/2000/svg" width="34" height="32" viewBox="0 0 34 32">
<title>panther-guideline</title>
<path fill="#444" d="M27.905 14.854v4.29l-6.436-5.365 6.423-5.353v4.28h3.153c0.022 0.002 0.047 0.002 0.073 0.002 0.594 0 1.075-0.482 1.075-1.075 0-0.026-0.001-0.051-0.003-0.077q0-3.135 0-6.274c0.002-0.025 0.003-0.054 0.003-0.084 0-0.594-0.482-1.075-1.075-1.075-0.030 0-0.060 0.001-0.090 0.004l-20.261-0v-2.127c0.076 0 0.154 0 0.244 0h20.082c0.031-0.001 0.067-0.002 0.103-0.002 1.731 0 3.134 1.403 3.134 3.134 0 0.028-0 0.056-0.001 0.084 0 2.139-0.019 4.285 0 6.429 0 0.002 0 0.003 0 0.005 0 1.779-1.442 3.221-3.221 3.221-0.014 0-0.027-0-0.041-0-0.959 0-1.92 0-2.88 0h-0.278z"></path>
<path fill="#444" d="M8.594 12.708v2.146h-5.243c-0.744 0-1.183 0.437-1.183 1.175q0 4.19 0 8.377c-0.003 0.029-0.004 0.063-0.004 0.097 0 0.595 0.483 1.078 1.078 1.078 0.032 0 0.065-0.001 0.096-0.004l13.601 0c0.073 0 0.144 0 0.244-0.012v-4.277l6.438 5.365-6.423 5.343v-4.273h-13.834c-0.020 0-0.043 0.001-0.066 0.001-1.818 0-3.292-1.471-3.297-3.287q0-4.2 0-8.399c-0-0.020-0.001-0.043-0.001-0.067 0-1.802 1.461-3.263 3.263-3.263 0.028 0 0.055 0 0.083 0.001q2.498-0 5-0h0.244z"></path>
<path fill="#444" d="M0 0h8.574v6.226h-8.574v-6.226z"></path>
<path fill="#444" d="M10.764 10.564h8.574v6.226h-8.574v-6.226z"></path>
<path fill="#444" d="M25.752 23.599h8.574v6.226h-8.574v-6.226z"></path>
</svg>
