<!-- Generated by IcoMoon.io -->
<svg version="1.1" xmlns="http://www.w3.org/2000/svg" width="16" height="32" viewBox="0 0 16 32">
<title>panther-wrenches</title>
<path fill="#444" d="M11.038 0.254c2.737 1.978 2.679 6.171-0.111 8.193-0.175 0.103-0.29 0.29-0.29 0.505 0 0.006 0 0.012 0 0.018q-0.046 8.187-0.099 16.372c0.005 0.193 0.073 0.369 0.184 0.509 0.535 0.648 0.861 1.489 0.861 2.407 0 1.179-0.538 2.233-1.381 2.929-0.611 0.503-1.393 0.805-2.245 0.805-1.195 0-2.251-0.593-2.89-1.501-0.424-0.605-0.673-1.343-0.673-2.139 0-0.881 0.305-1.691 0.815-2.33 0.178-0.21 0.289-0.494 0.289-0.803 0-0.018-0-0.037-0.001-0.055q0.046-8.064 0.111-16.132c0.001-0.010 0.001-0.022 0.001-0.035 0-0.206-0.109-0.386-0.272-0.486-1.448-1.063-2.154-2.518-2.077-4.361 0.060-1.46 0.71-2.624 1.754-3.586 0.208-0.171 0.44-0.34 0.682-0.496 0.030 0.19 0.030 0.312 0.030 0.434 0 0.748-0.020 1.498-0.011 2.246-0 0.005-0 0.011-0 0.017 0 1.017 0.628 1.888 1.518 2.245 0.998 0.371 1.888 0.165 2.651-0.589 0.547-0.547 0.75-1.223 0.746-1.983s0-1.564 0.015-2.44c0.179 0.113 0.29 0.179 0.394 0.254zM7.268 29.562c0.516 0.334 0.894 0.303 1.421-0.013s0.706-0.631 0.71-1.244-0.166-0.934-0.681-1.239-0.927-0.343-1.447 0.027c-0.786 0.56-0.644 0.213-0.675 1.359-0.186 0.536 0.195 0.801 0.671 1.109z"></path>
<path fill="#444" d="M0.314 22.616l-0.307-0.182 1.761-2.635c0.086 0.032 0.161 0.071 0.23 0.117 0.026 0.041 0.045 0.094 0.049 0.152 0.001 0.004 0.001 0.006 0.001 0.009s-0 0.006-0.001 0.008c-0.243 0.514-0.234 0.585 0.277 0.912 0.879 0.549 1.894 1.004 2.971 1.31 1.067 0.304 2.195 0.467 3.362 0.467 0.265 0 0.527-0.008 0.788-0.025 0.868-0.022 1.726-0.186 2.528-0.469 0.775-0.287 1.502-0.712 1.974-1.431 0.706-1.067 0.259-2.372-0.996-2.892-0.518-0.223-1.119-0.366-1.749-0.396-1.276-0.057-2.542-0.097-3.807-0.154-1.095-0.049-2.19-0.111-3.241-0.365-0.88-0.215-1.719-0.518-2.343-1.146-1.25-1.254-1.277-3.129-0.084-4.45 0.62-0.684 1.429-1.126 2.336-1.44 1.66-0.573 3.385-0.73 5.149-0.648 1.774 0.098 3.43 0.488 4.959 1.122 0.121 0.049 0.349 0.122 0.564 0.217 0.064 0.033 0.14 0.053 0.221 0.053 0.147 0 0.279-0.066 0.368-0.169l0.070-0.066c0.206-0.197 0.206-0.197 0.485-0.013l-1.67 2.695-0.327-0.144c0.051-0.14 0.093-0.277 0.15-0.411 0.024-0.049 0.038-0.107 0.038-0.168 0-0.146-0.080-0.273-0.198-0.34-0.389-0.261-0.836-0.473-1.313-0.616-1.306-0.473-2.773-0.741-4.303-0.741-0.296 0-0.59 0.010-0.881 0.030-1.154 0.071-2.307 0.308-3.333 0.886-0.642 0.365-1.119 0.859-1.277 1.546-0.182 0.803 0.255 1.624 1.073 2.007 0.625 0.282 1.352 0.456 2.118 0.476 1.453 0.073 2.9 0.119 4.343 0.183 1.002 0.049 2.007 0.082 2.976 0.365 1.39 0.407 2.436 1.164 2.737 2.496 0.39 1.701-0.237 3.087-1.806 4.12-1.142 0.752-2.452 1.095-3.832 1.243-0.512 0.054-1.106 0.085-1.707 0.085-0.825 0-1.637-0.058-2.432-0.17-1.067-0.158-2.112-0.457-3.093-0.877-0.551-0.226-1.169-0.516-1.801-0.772-0.526-0.217-0.529-0.21-0.936 0.146-0.036 0.026-0.066 0.046-0.093 0.073z"></path>
</svg>
