<!-- Generated by IcoMoon.io -->
<svg version="1.1" xmlns="http://www.w3.org/2000/svg" width="32" height="32" viewBox="0 0 32 32">
<title>panther-hobby</title>
<path fill="#444" d="M15.634 0c7.927 0 15.909 7.839 15.909 16.026s-7.828 15.974-15.771 15.974-15.786-7.483-15.771-15.684 7.706-16.316 15.634-16.316zM15.876 1.713c-7.656 0-13.883 6.442-13.883 14.349s6.235 14.362 13.915 14.351 13.881-6.437 13.883-14.347-6.246-14.36-13.915-14.352z"></path>
<path fill="#444" d="M16.091 26.88v2.774h-0.483c0-0.377 0-0.731 0-1.097q0-0.645 0-1.293c-0.005-0.463-0.005-0.463 0.483-0.384z"></path>
<path fill="#444" d="M16.137 3.869c0 0.382-0.009 0.766 0 1.147 0 0.207-0.091 0.232-0.254 0.232s-0.256-0.026-0.254-0.232q0.015-1.19 0-2.377c0-0.219 0.119-0.216 0.267-0.218s0.243 0.027 0.24 0.218c-0.004 0.408 0.002 0.819 0.002 1.231z"></path>
<path fill="#444" d="M20.919 6.537l1.34-2.399 0.435 0.25-0.934 1.662-0.236 0.422c-0.214 0.397-0.241 0.402-0.605 0.064z"></path>
<path fill="#444" d="M10.871 6.554l-0.437 0.254-1.353-2.419 0.428-0.276z"></path>
<path fill="#444" d="M27.407 22.649l-0.249 0.448-2.361-1.41 0.252-0.446z"></path>
<path fill="#444" d="M4.584 8.997l2.364 1.406-0.24 0.454-2.353-1.404z"></path>
<path fill="#444" d="M6.674 21.211l0.252 0.446-2.355 1.404-0.256-0.444z"></path>
<path fill="#444" d="M22.674 27.721l-0.442 0.256-1.359-2.432 0.426-0.271z"></path>
<path fill="#444" d="M2.723 16.274c-0.093-0.479-0.077-0.499 0.366-0.499 0.682 0 1.366 0 2.048 0 0.183 0 0.291 0 0.296 0.251s-0.121 0.269-0.305 0.267c-0.71 0-1.421 0-2.13 0-0.101-0.007-0.19-0.018-0.274-0.018z"></path>
<path fill="#444" d="M29.029 16.316c-0.859 0-1.708 0-2.56 0-0.198 0-0.154-0.172-0.135-0.276 0.016-0.097 0.076-0.177 0.157-0.222 0.093-0.013 0.198-0.019 0.305-0.019 0.068 0 0.136 0.003 0.203 0.008l1.653-0.001c0.448-0.002 0.448-0.002 0.377 0.51z"></path>
<path fill="#444" d="M9.048 27.706l1.36-2.436 0.437 0.252-1.359 2.436z"></path>
<path fill="#444" d="M25.066 10.882l-0.252-0.444 2.35-1.404 0.265 0.437z"></path>
<path fill="#444" d="M4.092 8.777c0.386 0.32 0.731 0.602 1.073 0.89 0.261 0.245 0.614 0.396 1.001 0.396 0.050 0 0.099-0.002 0.148-0.007 0.577-0.041 1.059-0.436 1.227-0.97 0.054-0.151 0.084-0.314 0.084-0.483 0-0.429-0.191-0.813-0.493-1.072-0.326-0.281-0.658-0.55-0.989-0.823l-0.199-0.165c0.128-0.046 0.292-0.093 0.459-0.13 0.182-0.034 0.357-0.051 0.536-0.051 1.578 0 2.858 1.28 2.858 2.858 0 0.091-0.004 0.18-0.012 0.269-0.002 0.005-0.004 0.023-0.004 0.043 0 0.107 0.051 0.202 0.13 0.262q3.552 2.939 7.094 5.887c0.124 0.113 0.289 0.183 0.471 0.183 0.005 0 0.011-0 0.016-0 0.96 0.010 1.764 0.669 1.996 1.558 0.033 0.147 0.050 0.299 0.050 0.455 0 1.167-0.946 2.113-2.113 2.113-1.011 0-1.856-0.71-2.064-1.658-0.023-0.123-0.078-0.216-0.154-0.286q-3.588-2.996-7.19-5.978c-0.057-0.052-0.134-0.083-0.217-0.083-0.043 0-0.084 0.008-0.122 0.023-0.228 0.066-0.493 0.104-0.766 0.104-1.58 0-2.862-1.281-2.862-2.862 0-0.074 0.003-0.148 0.008-0.221 0.005-0.071 0.018-0.14 0.032-0.254zM18.033 17.402c-0.512-0.408-0.307-0.346-0.845-0.192-0.355 0.101-0.488 0.291-0.549 0.649-0.007 0.040-0.011 0.085-0.011 0.132 0 0.453 0.368 0.821 0.821 0.821 0.103 0 0.202-0.019 0.292-0.054 0.292-0.070 0.511-0.328 0.526-0.638 0.044-0.34 0.070-0.61-0.234-0.726z"></path>
<path fill="#444" d="M16.914 18.039c-0.466 0.956-0.936 1.913-1.399 2.871-0.204 0.478-0.67 0.806-1.213 0.806-0.001 0-0.002 0-0.004 0-0.077 0.008-0.143 0.051-0.182 0.112q-0.902 1.83-1.789 3.658c-0.035 0.082-0.057 0.178-0.062 0.278-0.032 0.39-0.165 0.742-0.37 1.039-0.228 0.322-0.449 0.657-0.672 0.991-0.019 0.045-0.062 0.076-0.114 0.076-0.026 0-0.050-0.008-0.070-0.022q-0.287-0.148-0.579-0.283c-0.052-0.015-0.090-0.062-0.090-0.118 0-0.024 0.007-0.046 0.019-0.065 0.159-0.471 0.287-0.958 0.484-1.413 0.151-0.262 0.319-0.488 0.51-0.693 0.058-0.066 0.113-0.142 0.16-0.223q0.887-1.806 1.767-3.609c0.019-0.031 0.031-0.068 0.031-0.108 0-0.053-0.020-0.101-0.053-0.137-0.175-0.214-0.281-0.491-0.281-0.793 0-0.219 0.056-0.426 0.155-0.605q1.423-2.919 2.857-5.856c0.213-0.439 0.656-0.737 1.168-0.737 0.471 0 0.884 0.252 1.11 0.629 0.12 0.192 0.19 0.418 0.19 0.661 0 0.218-0.056 0.423-0.155 0.602zM15.148 17.189v0l-1.086 2.229c-0.090 0.183-0.183 0.366-0.261 0.549-0.012 0.024-0.020 0.053-0.020 0.083 0 0.072 0.041 0.134 0.101 0.164 0.026 0.014 0.056 0.022 0.088 0.022 0.070 0 0.131-0.040 0.162-0.098 0.026-0.043 0.053-0.092 0.076-0.143l2.587-5.311c0.104-0.214 0.095-0.325-0.031-0.384s-0.207 0-0.309 0.21zM16.357 17.772l1.302-2.672c0.033-0.043 0.055-0.095 0.062-0.152-0.009-0.087-0.050-0.162-0.109-0.215-0.015-0.003-0.031-0.005-0.048-0.005-0.12 0-0.219 0.084-0.243 0.197l-2.599 5.328c-0.032 0.043-0.055 0.095-0.064 0.152 0.002 0.089 0.035 0.168 0.088 0.229 0.026 0.018 0.059 0.030 0.094 0.030 0.068 0 0.126-0.041 0.15-0.1 0.026-0.042 0.052-0.092 0.075-0.142z"></path>
<path fill="#444" d="M10.62 19.931c0.063-0.091 0.127-0.171 0.197-0.246 0.364-0.335 0.701-0.688 1.083-0.995 0.62-0.497 1.256-0.975 1.9-1.441 0.677-0.49 1.362-0.971 2.057-1.434 0.984-0.653 1.969-1.302 2.973-1.924 0.933-0.58 1.887-1.125 2.836-1.675 0.329-0.183 0.673-0.366 1.011-0.532 0.043-0.037 0.1-0.059 0.162-0.059 0.1 0 0.187 0.059 0.227 0.144 0.14 0.199 0.269 0.404 0.394 0.61 0.031 0.038 0.049 0.087 0.049 0.14 0 0.082-0.044 0.154-0.11 0.194-0.604 0.465-1.202 0.939-1.817 1.388q-1.006 0.731-2.037 1.441-1.077 0.731-2.174 1.423c-0.803 0.51-1.607 1.018-2.427 1.498s-1.68 0.956-2.536 1.406c-0.386 0.203-0.806 0.34-1.21 0.506l-0.035 0.009c-0.329 0.090-0.439 0.040-0.589-0.26z"></path>
<path fill="#444" d="M28.277 9.004c-0.134 0.245-0.254 0.496-0.402 0.731-0.376 0.639-0.828 1.185-1.353 1.651-0.517 0.469-1.198 0.752-1.944 0.752-0.101 0-0.202-0.005-0.3-0.015-0.384-0.018-0.721-0.256-0.881-0.594-0.064-0.145-0.1-0.307-0.1-0.477 0-0.181 0.041-0.353 0.113-0.507 0.272-0.637 0.741-1.154 1.331-1.481 0.093-0.067 0.192-0.102 0.298-0.102 0.142 0 0.27 0.063 0.357 0.163 0.096 0.085 0.183 0.172 0.278 0.262 0.145 0.147 0.347 0.238 0.57 0.238 0.105 0 0.206-0.020 0.298-0.057 0.329-0.127 0.618-0.292 0.876-0.495 0.198-0.137 0.408-0.273 0.622-0.399 0.032-0.028 0.074-0.045 0.12-0.045 0.074 0 0.137 0.044 0.166 0.106z"></path>
<path fill="#444" d="M25.335 11.143c0.007 0.022 0.012 0.046 0.012 0.072 0 0.087-0.048 0.162-0.118 0.201-0.034 0.025-0.076 0.040-0.121 0.040-0.064 0-0.121-0.030-0.157-0.076-0.106-0.134-0.2-0.28-0.295-0.421-0.071-0.104-0.144-0.208-0.207-0.32-0.024-0.049-0.044-0.107-0.058-0.166 0.005-0.132 0.109-0.231 0.236-0.231 0.061 0 0.117 0.023 0.16 0.062 0.067 0.069 0.128 0.146 0.179 0.228z"></path>
</svg>
