<!-- Generated by IcoMoon.io -->
<svg version="1.1" xmlns="http://www.w3.org/2000/svg" width="32" height="32" viewBox="0 0 32 32">
<title>panther-weblink</title>
<path fill="#444" d="M18.261 32c-0.011-0.012-0.024-0.021-0.039-0.028-0.769-0.137-1.275-0.657-1.783-1.189s-0.98-0.989-1.474-1.479c-1.007-0.998-1.019-2.358-0.023-3.359 1.161-1.161 2.321-2.347 3.507-3.507 1.042-1.028 2.351-1.012 3.391 0.026 0.039 0.039 0.084 0.079 0.121 0.123 0.030 0.048 0.083 0.080 0.144 0.080s0.113-0.032 0.143-0.079c0.193-0.2 0.388-0.4 0.595-0.588 0.062-0.032 0.104-0.096 0.104-0.169s-0.042-0.137-0.103-0.169c-0.366-0.295-0.639-0.691-0.779-1.144-0.068-0.212-0.104-0.437-0.104-0.671 0-0.623 0.26-1.184 0.677-1.583 1.011-1.027 2.034-2.041 3.053-3.060 0.202-0.202 0.402-0.409 0.608-0.606 0.407-0.415 0.973-0.672 1.599-0.672s1.192 0.257 1.599 0.671q1.040 1.026 2.066 2.069c0.431 0.409 0.699 0.985 0.699 1.625s-0.268 1.216-0.698 1.624q-1.809 1.821-3.631 3.629c-0.406 0.416-0.972 0.673-1.599 0.673-0.591 0-1.129-0.23-1.529-0.605l-0.106-0.099c-0.39-0.367-0.274-0.406-0.696 0.019-0.128 0.125-0.248 0.262-0.381 0.383-0.054 0.030-0.089 0.087-0.089 0.152s0.036 0.122 0.088 0.152c0.080 0.070 0.152 0.151 0.233 0.233 0.415 0.407 0.672 0.974 0.672 1.6s-0.257 1.193-0.671 1.6c-1.214 1.228-2.438 2.447-3.661 3.668-0.286 0.291-0.655 0.501-1.067 0.592-0.106 0.029-0.183 0.057-0.257 0.091l-0.609-0.004zM20.71 26.608c-0.173-0.080-0.319-0.162-0.458-0.254-0.127-0.111-0.252-0.235-0.369-0.367-0.335-0.343-0.338-0.677-0.003-1.014 0.232-0.246 0.487-0.485 0.727-0.733 0.057-0.050 0.095-0.121 0.102-0.201-0.067-0.234-0.279-0.402-0.529-0.402-0.139 0-0.266 0.051-0.363 0.136q-1.757 1.75-3.509 3.507c-0.251 0.251-0.248 0.411 0 0.666q0.961 0.966 1.927 1.929c0.255 0.255 0.425 0.258 0.696 0q1.755-1.753 3.507-3.51c0.232-0.232 0.232-0.395 0-0.629-0.051-0.053-0.111-0.098-0.158-0.156-0.031-0.058-0.091-0.097-0.16-0.097s-0.129 0.039-0.16 0.096c-0.249 0.261-0.5 0.521-0.769 0.76-0.137 0.097-0.294 0.187-0.459 0.26zM25.742 19.303c0.181 0.084 0.333 0.169 0.478 0.264 0.119 0.104 0.239 0.223 0.349 0.349 0.342 0.352 0.345 0.7 0.003 1.037-0.232 0.246-0.483 0.49-0.731 0.727-0.054 0.030-0.089 0.087-0.089 0.152s0.036 0.122 0.088 0.152c0.057 0.047 0.105 0.105 0.156 0.156 0.248 0.246 0.399 0.253 0.645 0q1.773-1.769 3.54-3.544c0.1-0.067 0.165-0.179 0.165-0.306s-0.065-0.24-0.164-0.306q-0.979-0.985-1.96-1.965c-0.251-0.251-0.416-0.246-0.666 0l-1.479 1.474q-1.026 1.024-2.047 2.050c-0.232 0.232-0.218 0.383 0 0.613 0.051 0.053 0.109 0.102 0.153 0.158 0.114 0.144 0.216 0.135 0.341 0 0.248-0.26 0.499-0.52 0.766-0.761 0.13-0.091 0.279-0.174 0.436-0.242z"></path>
<path fill="#444" d="M0 0h20.775v2.321h-20.775v-2.321z"></path>
<path fill="#444" d="M0 11.622h20.775v2.321h-20.775v-2.321z"></path>
<path fill="#444" d="M0 5.812h20.775v2.321h-20.775v-2.321z"></path>
<path fill="#444" d="M0 17.434h20.775v2.321h-20.775v-2.321z"></path>
</svg>
