<!-- Generated by IcoMoon.io -->
<svg version="1.1" xmlns="http://www.w3.org/2000/svg" width="35" height="32" viewBox="0 0 35 32">
<title>panther-promise</title>
<path fill="#444" d="M35.358 10.647v-0.443c-0.374-0.2-0.949-0.662-1.040-0.561-6.093 6.462-12.127 12.978-18.22 19.438-0.266 0.282-0.971 0.082-1.474 0.107 0.021-0.548-0.168-1.31 0.095-1.613 1.528-1.788 3.167-3.47 4.756-5.203 0.025-0.055 0.040-0.119 0.040-0.187 0-0.086-0.024-0.167-0.065-0.236-0.304-0.243-0.865-0.69-0.934-0.615-1.626 1.652-3.165 3.407-4.815 5.029-0.305 0.299-1.020 0.116-1.545 0.157 0.041-0.561-0.123-1.336 0.157-1.665 1.508-1.766 3.137-3.41 4.677-5.148 0.071-0.080-0.326-0.675-0.55-0.993-0.068-0.054-0.156-0.086-0.25-0.086-0.062 0-0.12 0.014-0.173 0.038-1.606 1.698-3.165 3.452-4.824 5.089-0.288 0.284-0.986 0.092-1.497 0.12 0.021-0.548-0.168-1.31 0.095-1.611 1.528-1.788 3.18-3.463 4.733-5.225 0.067-0.077-0.301-0.647-0.516-0.935-0.075-0.103-0.385-0.166-0.453-0.097-1.631 1.719-3.216 3.495-4.892 5.16-0.268 0.266-0.935 0.062-1.429 0.073 0-0.531-0.221-1.272 0.024-1.558 1.513-1.77 3.128-3.444 4.716-5.139 1.938-2.058 4.441-3.813 3.609-7.438 0.026-0.105 0.102-0.189 0.2-0.226q1.594-0.023 3.183-0.001c0.123 0.037 0.22 0.124 0.27 0.237q1.606 3.438 3.193 6.883c0.531 1.16 1.796 1.684 2.889 1.171s1.605-1.858 1.137-3.072q-1.594-4.131-3.212-8.25c-0.081-0.148-0.227-0.251-0.398-0.273-2.425-0.017-4.867-0.242-7.263 0.045-3.165 0.374-5.64-0.522-7.47-3.354-0.047-0.026-0.102-0.041-0.162-0.041-0.067 0-0.13 0.019-0.182 0.053-1.037 1.090-2.057 2.199-3.089 3.299-1.556 1.658-3.18 3.309-4.677 4.963v0.247c2.058 2.206 4.133 4.408 6.194 6.615 1.454 1.558 1.351 1.476 0.075 3.18-0.5 0.672-0.791 1.949-0.544 2.716s1.291 1.184 1.983 1.762c0.105 0.061 0.187 0.151 0.238 0.258 0.207 1.392 0.956 2.174 2.247 2.4 0.116 0.043 0.204 0.138 0.235 0.256 0.21 1.385 0.936 2.182 2.246 2.392 0.104 0.053 0.186 0.136 0.238 0.236 0.54 0.751 0.937 1.874 1.644 2.158s1.768-0.135 2.533-0.546c0.66-0.355 1.122-1.143 1.684-1.723 0.049-0.030 0.109-0.048 0.173-0.048s0.124 0.018 0.174 0.049c1.052 1.028 2.092 2.072 3.136 3.114 0.735 0.67 1.579 0.297 2.161 0.297 0.466-0.769 1.122-1.484 0.986-2.6 0.071-0.114 0.176-0.288 0.271-0.292 1.326-0.052 2.232-1.027 2.275-2.445 0.037-0.137 0.14-0.244 0.272-0.285 1.281-0.042 2.248-1.063 2.289-2.403 0-0.122 0.187-0.258 0.314-0.352 0.7 0.238 1.73-0.281 1.968-1.564 0.256-0.705-0.071-1.852-0.481-2.585-0.494-0.881-1.375-1.497-2.019-2.301-0.15-0.187-0.168-0.763-0.017-0.935 1.659-1.854 3.399-3.667 5.083-5.491z"></path>
</svg>
