<!-- Generated by IcoMoon.io -->
<svg version="1.1" xmlns="http://www.w3.org/2000/svg" width="41" height="32" viewBox="0 0 41 32">
<title>panther-checklist</title>
<path fill="#444" d="M12.723 2.761h28.356v4.78h-28.356v-4.78z"></path>
<path fill="#444" d="M12.723 13.611h28.356v4.78h-28.356v-4.78z"></path>
<path fill="#444" d="M12.723 24.461h21.296v4.78h-21.296v-4.78z"></path>
<path fill="#444" d="M3.26 9.089l-3.26-3.559 0.597 0.040 3.584 2.593-0.92 0.925z"></path>
<path fill="#444" d="M10.958 0.687l-6.91 8.931-0.923-0.687 6.91-8.931 0.923 0.687z"></path>
<path fill="#444" d="M3.26 31.471l-3.26-3.559 0.597 0.040 3.584 2.593-0.92 0.925z"></path>
<path fill="#444" d="M10.958 23.069l-6.91 8.931-0.923-0.687 6.91-8.931 0.923 0.687z"></path>
<path fill="#444" d="M3.26 20.28l-3.26-3.559 0.597 0.040 3.584 2.593-0.92 0.925z"></path>
<path fill="#444" d="M10.958 11.878l-6.91 8.931-0.923-0.687 6.91-8.931 0.923 0.687z"></path>
</svg>
