<!-- Generated by IcoMoon.io -->
<svg version="1.1" xmlns="http://www.w3.org/2000/svg" width="39" height="32" viewBox="0 0 39 32">
<title>panther-collaboration</title>
<path fill="#444" d="M12.119 20.979h-1.983q-4.914 0-9.827 0c-0.231 0-0.317-0.052-0.306-0.268 0.019-0.38 0.015-0.764 0-1.144-0-0.010-0-0.021-0-0.032 0-0.429 0.228-0.805 0.569-1.014 0.919-0.66 1.959-1.266 3.055-1.771 0.311-0.103 0.451-0.278 0.451-0.486 0-0.018-0.001-0.036-0.003-0.053-0.021-0.548 0-1.101-0.013-1.651-0.034-0.142-0.091-0.267-0.168-0.377-0.106-0.223-0.3-0.447-0.311-0.678-0.039-0.779-0.032-1.56 0-2.339 0.032-1.034 0.878-1.828 2.022-1.916 0.742-0.058 1.474-0.047 2.102 0.406 0.523 0.353 0.863 0.944 0.863 1.614 0 0.704 0 1.407 0 2.111 0 0.011 0.001 0.024 0.001 0.038 0 0.325-0.146 0.615-0.377 0.809-0.073 0.068-0.119 0.16-0.125 0.264-0 0.62-0 1.24-0 1.857 0.001 0.156 0.111 0.286 0.257 0.319 1.212 0.56 2.243 1.157 3.213 1.836 0.365 0.258 0.611 0.603 0.58 1.125-0.032 0.436 0 0.876 0 1.351z"></path>
<path fill="#444" d="M38.642 20.979h-1.974q-4.914 0-9.827 0c-0.231 0-0.317-0.052-0.306-0.268 0.019-0.38 0.015-0.764 0-1.144-0-0.010-0-0.021-0-0.032 0-0.429 0.228-0.805 0.569-1.014 0.919-0.66 1.959-1.266 3.055-1.771 0.311-0.103 0.451-0.278 0.451-0.486 0-0.018-0.001-0.036-0.003-0.053-0.021-0.548 0-1.101-0.013-1.651-0.034-0.142-0.091-0.267-0.169-0.377-0.106-0.223-0.3-0.447-0.311-0.678-0.039-0.779-0.032-1.56 0-2.339 0.032-1.034 0.878-1.828 2.022-1.916 0.742-0.058 1.474-0.047 2.102 0.406 0.523 0.353 0.863 0.944 0.863 1.614 0 0.704 0 1.407 0 2.111 0 0.011 0.001 0.024 0.001 0.038 0 0.325-0.146 0.615-0.377 0.809-0.073 0.068-0.119 0.16-0.125 0.264-0 0.62-0 1.24-0 1.857 0.001 0.156 0.111 0.286 0.257 0.319 1.216 0.56 2.251 1.157 3.225 1.836 0.364 0.258 0.61 0.603 0.58 1.125-0.043 0.436-0.019 0.876-0.019 1.351z"></path>
<path fill="#444" d="M25.377 11.759h-1.974q-4.914 0-9.827 0c-0.231 0-0.317-0.052-0.306-0.268 0.019-0.38 0.015-0.764 0-1.144-0-0.010-0-0.021-0-0.033 0-0.43 0.229-0.807 0.571-1.015 0.919-0.66 1.959-1.266 3.055-1.771 0.311-0.103 0.451-0.278 0.451-0.486 0-0.018-0.001-0.036-0.003-0.053-0.021-0.548 0-1.101-0.013-1.651-0.034-0.142-0.091-0.267-0.169-0.377-0.106-0.223-0.3-0.447-0.311-0.678-0.039-0.779-0.032-1.56 0-2.339 0.015-1.036 0.878-1.839 2.015-1.918 0.742-0.058 1.474-0.047 2.102 0.406 0.523 0.353 0.863 0.944 0.863 1.614 0 0.704 0 1.407 0 2.111 0 0.011 0.001 0.024 0.001 0.038 0 0.325-0.146 0.615-0.377 0.809-0.073 0.068-0.119 0.16-0.125 0.264-0 0.62-0 1.24-0 1.857 0.001 0.156 0.111 0.286 0.257 0.319 1.215 0.56 2.249 1.158 3.222 1.838 0.364 0.258 0.61 0.603 0.58 1.125-0.039 0.434-0.013 0.874-0.013 1.353z"></path>
<path fill="#444" d="M24.074 27.889l-2.374 4.111h-4.747l-2.374-4.111 2.374-4.111h4.747l2.374 4.111z"></path>
<path fill="#444" d="M18.142 12.784h2.367v9.225h-2.367v-9.225z"></path>
<path fill="#444" d="M14.398 25.671l-6.933-4.322 2.652-0.017 5.091 2.937-0.809 1.403z"></path>
<path fill="#444" d="M24.262 25.671l6.931-4.322-2.652-0.017-5.088 2.937 0.809 1.403z"></path>
</svg>
