<!-- Generated by IcoMoon.io -->
<svg version="1.1" xmlns="http://www.w3.org/2000/svg" width="36" height="32" viewBox="0 0 36 32">
<title>panther-follower</title>
<path fill="#444" d="M33.39 31.993h-4.982q-12.395 0-24.789 0c-0.582 0-0.799-0.14-0.771-0.735 0.048-1.036 0.040-2.077 0.017-3.122-0.028-1.205 0.472-2.113 1.447-2.854 2.322-1.798 4.941-3.445 7.716-4.826 0.898-0.424 1.127-0.779 1.105-1.453-0.053-1.498 0.013-3-0.033-4.499-0.011-0.343-0.27-0.681-0.419-1.019-0.274-0.619-0.762-1.227-0.79-1.856-0.099-2.119-0.083-4.245-0.020-6.368 0.083-2.813 2.213-4.973 5.103-5.217 1.873-0.158 3.718-0.132 5.301 1.102 1.334 0.995 2.189 2.57 2.189 4.344 0 0.016-0 0.033-0 0.049 0.024 1.913 0 3.828 0 5.743 0.002 0.036 0.002 0.079 0.002 0.121 0 0.863-0.366 1.64-0.952 2.185-0.182 0.188-0.297 0.437-0.31 0.713-0.024 1.686-0 3.372-0.020 5.056 0 0.498 0.275 0.679 0.656 0.867 3.041 1.519 5.645 3.143 8.082 4.979 0.971 0.728 1.581 1.694 1.489 3.088-0.083 1.214-0.020 2.411-0.020 3.7z"></path>
<path fill="#444" d="M15.957 26.903h-2.602q-6.475 0-12.951 0c-0.305 0-0.417-0.073-0.402-0.38 0.026-0.542 0.020-1.085 0-1.627-0.001-0.019-0.001-0.042-0.001-0.064 0-0.591 0.298-1.113 0.752-1.423 1.219-0.943 2.587-1.804 4.037-2.525 0.4-0.154 0.581-0.394 0.581-0.676 0-0.029-0.002-0.057-0.006-0.085-0.027-0.779 0-1.565-0.016-2.347 0-0.184-0.141-0.356-0.218-0.532-0.143-0.323-0.398-0.641-0.413-0.97-0.051-1.102-0.044-2.218-0.011-3.327 0.044-1.469 1.157-2.598 2.666-2.725 0.979-0.083 1.943-0.070 2.769 0.577 0.697 0.52 1.144 1.342 1.144 2.269 0 0.009-0 0.017-0 0.026 0.013 0.999 0 2 0 3.001 0.001 0.018 0.001 0.040 0.001 0.062 0 0.451-0.192 0.857-0.498 1.142-0.094 0.096-0.154 0.224-0.162 0.367-0.013 0.881-0 1.762-0.011 2.642 0 0.259 0.143 0.354 0.342 0.454 1.593 0.796 2.958 1.648 4.234 2.611 0.51 0.381 0.826 0.886 0.779 1.613-0.044 0.622-0.013 1.247-0.013 1.921z"></path>
<path fill="#444" d="M36.423 26.903h-2.602q-6.475 0-12.951 0c-0.305 0-0.417-0.073-0.402-0.38 0.026-0.542 0.020-1.085 0-1.627-0.001-0.019-0.001-0.042-0.001-0.064 0-0.591 0.298-1.113 0.752-1.423 1.221-0.942 2.592-1.801 4.044-2.521 0.401-0.154 0.582-0.394 0.582-0.676 0-0.029-0.002-0.057-0.006-0.085-0.027-0.779 0-1.565-0.016-2.347 0-0.184-0.141-0.356-0.218-0.532-0.143-0.323-0.398-0.641-0.413-0.97-0.051-1.102-0.044-2.218-0.011-3.327 0.044-1.469 1.157-2.598 2.666-2.725 0.979-0.083 1.943-0.070 2.769 0.577 0.697 0.52 1.144 1.342 1.144 2.269 0 0.009-0 0.017-0 0.026 0.013 0.999 0 2 0 3.001 0.001 0.018 0.001 0.040 0.001 0.062 0 0.451-0.192 0.857-0.498 1.142-0.094 0.096-0.154 0.224-0.163 0.367-0.013 0.881-0 1.762-0.011 2.642 0 0.259 0.143 0.354 0.342 0.454 1.588 0.793 2.949 1.641 4.222 2.6 0.51 0.38 0.826 0.885 0.778 1.612-0.031 0.63-0.007 1.254-0.007 1.928z"></path>
</svg>
