<!-- Generated by IcoMoon.io -->
<svg version="1.1" xmlns="http://www.w3.org/2000/svg" width="32" height="32" viewBox="0 0 32 32">
<title>panther-community</title>
<path fill="#444" d="M9.608 11.325c0-0.862 0-1.726 0-2.588-0.001-0.009-0.001-0.020-0.001-0.030 0-0.164 0.079-0.31 0.201-0.401q2.074-1.702 4.14-3.415 1.090-0.901 2.181-1.806c0.029-0.034 0.072-0.056 0.12-0.056s0.091 0.022 0.12 0.056q2.478 2.050 4.957 4.095c0.476 0.393 0.956 0.782 1.416 1.184 0.075 0.071 0.124 0.169 0.131 0.279 0 1.755 0 3.511 0 5.265 0 0.586-0.296 0.885-0.885 0.885-1.358 0-2.717 0-4.071 0-0.177 0-0.196-0.085-0.196-0.225q0-1.975 0-3.953c0-0.253 0-0.257-0.251-0.257h-2.478c-0.234 0-0.246 0.012-0.246 0.248q0 1.96 0 3.917c0 0.264 0 0.266-0.26 0.266h-3.979c-0.317 0-0.621-0.055-0.775-0.368-0.073-0.152-0.116-0.33-0.117-0.518-0.011-0.854-0.005-1.716-0.005-2.578z"></path>
<path fill="#444" d="M19.788 2.627v-0.248c0-0.635 0.074-1.271 0.078-1.906 0-0.326 0.145-0.427 0.469-0.428h2.066c0.336 0 0.474 0.129 0.474 0.469 0 1.464 0 2.926 0 4.39-0.001 0.008-0.001 0.017-0.001 0.026 0 0.13 0.062 0.245 0.157 0.318 0.764 0.631 1.523 1.268 2.283 1.904 0.248 0.207 0.266 0.388 0.058 0.643s-0.386 0.466-0.581 0.699c-0.216 0.258-0.389 0.281-0.653 0.066-0.416-0.338-0.823-0.685-1.239-1.028l-2.535-2.124-3.432-2.869c-0.188-0.158-0.379-0.31-0.561-0.474-0.033-0.039-0.081-0.063-0.135-0.063s-0.103 0.024-0.135 0.063c-0.735 0.62-1.475 1.239-2.213 1.85l-5.5 4.616c-0.046 0.039-0.096 0.076-0.149 0.11-0.065 0.055-0.144 0.087-0.23 0.087-0.118 0-0.223-0.060-0.285-0.151-0.234-0.27-0.459-0.543-0.682-0.821-0.056-0.065-0.090-0.15-0.090-0.243 0-0.123 0.059-0.232 0.151-0.3q1.015-0.857 2.035-1.709l3.448-2.885c0.926-0.774 1.848-1.551 2.777-2.317 0.239-0.19 0.545-0.305 0.878-0.305 0.354 0 0.677 0.13 0.925 0.344 0.853 0.721 1.636 1.434 2.496 2.151 0.059 0.026 0.104 0.075 0.123 0.136z"></path>
<path fill="#444" d="M11.242 25.615h-1.834q-4.562 0-9.123 0c-0.214 0-0.294-0.048-0.283-0.248 0.018-0.354 0.014-0.708 0-1.062-0-0.009-0-0.020-0-0.031 0-0.398 0.211-0.746 0.527-0.94 0.853-0.613 1.818-1.176 2.836-1.645 0.292-0.094 0.424-0.258 0.424-0.453 0-0.012-0.001-0.024-0.002-0.037-0.019-0.51 0-1.022-0.012-1.533-0.031-0.135-0.084-0.253-0.156-0.357-0.099-0.207-0.277-0.414-0.288-0.63-0.035-0.722-0.030-1.448 0-2.172 0.030-0.959 0.814-1.696 1.878-1.779 0.689-0.053 1.368-0.044 1.947 0.377 0.487 0.327 0.804 0.875 0.805 1.497 0.009 0.653 0 1.306 0 1.96 0 0.010 0.001 0.021 0.001 0.032 0 0.303-0.137 0.574-0.353 0.754-0.068 0.063-0.11 0.149-0.115 0.245-0.009 0.576-0 1.15-0 1.725 0.002 0.144 0.103 0.265 0.239 0.295 1.127 0.521 2.087 1.076 2.99 1.707 0.345 0.24 0.568 0.568 0.534 1.044-0.037 0.402-0.014 0.811-0.014 1.25z"></path>
<path fill="#444" d="M32.266 25.615h-1.832q-4.562 0-9.123 0c-0.214 0-0.294-0.048-0.283-0.248 0.018-0.354 0.014-0.708 0-1.062-0-0.009-0-0.020-0-0.031 0-0.398 0.211-0.746 0.527-0.94 0.853-0.613 1.818-1.176 2.836-1.645 0.289-0.096 0.418-0.259 0.418-0.451 0-0.017-0.001-0.033-0.003-0.049-0.019-0.51 0-1.021-0.012-1.533-0.031-0.135-0.084-0.253-0.156-0.357-0.099-0.207-0.277-0.414-0.288-0.63-0.035-0.722-0.030-1.448 0-2.172 0.030-0.959 0.814-1.696 1.878-1.779 0.689-0.053 1.368-0.044 1.947 0.377 0.488 0.327 0.804 0.875 0.805 1.497 0.009 0.653 0 1.306 0 1.96 0 0.010 0.001 0.021 0.001 0.032 0 0.303-0.137 0.574-0.353 0.754-0.068 0.063-0.11 0.149-0.115 0.245-0.009 0.576-0 1.15-0 1.725 0.002 0.144 0.103 0.265 0.239 0.295 1.127 0.521 2.087 1.076 2.99 1.707 0.345 0.24 0.568 0.568 0.534 1.044-0.030 0.412-0.009 0.821-0.009 1.26z"></path>
<path fill="#444" d="M21.85 32h-1.834q-4.562 0-9.123 0c-0.214 0-0.294-0.048-0.283-0.248 0.018-0.354 0.014-0.708 0-1.062-0-0.009-0-0.020-0-0.031 0-0.398 0.211-0.746 0.527-0.94 0.853-0.613 1.818-1.176 2.836-1.645 0.289-0.096 0.418-0.259 0.418-0.451 0-0.017-0.001-0.033-0.003-0.049-0.019-0.51 0-1.021-0.012-1.533-0.031-0.135-0.084-0.253-0.156-0.357-0.099-0.207-0.277-0.414-0.288-0.63-0.035-0.722-0.030-1.448 0-2.172 0.030-0.959 0.814-1.696 1.878-1.779 0.689-0.053 1.368-0.044 1.947 0.377 0.488 0.327 0.804 0.875 0.805 1.497 0.009 0.653 0 1.306 0 1.96 0 0.010 0.001 0.021 0.001 0.032 0 0.303-0.137 0.574-0.353 0.754-0.068 0.063-0.11 0.149-0.115 0.245-0.009 0.576-0 1.15-0 1.725 0.002 0.144 0.103 0.265 0.239 0.295 1.127 0.521 2.087 1.076 2.99 1.707 0.345 0.24 0.568 0.568 0.534 1.044-0.030 0.409-0.007 0.818-0.007 1.26z"></path>
</svg>
