<!-- Generated by IcoMoon.io -->
<svg version="1.1" xmlns="http://www.w3.org/2000/svg" width="31" height="32" viewBox="0 0 31 32">
<title>panther-advice</title>
<path fill="#444" d="M17.090 27.14c-0.475 0-0.95-0.128-1.415 0.187-1.175 0.791-2.364 1.555-3.546 2.331-0.479 0.313-0.985 0.294-1.356-0.157-0.283-0.339-0.516-0.733-0.681-1.16-0.274-0.753-0.1-1.269 0.481-1.729q2.592-2.049 5.184-4.085c0.658-0.518 1.339-1.006 1.97-1.555 1.322-1.165 2.872-1.578 4.503-1.609 2.657-0.052 5.317-0.010 7.976-0.021 0.32 0 0.415 0.114 0.413 0.46q-0.017 3.11 0 6.212c0 0.368-0.107 0.477-0.435 0.475-2.2-0.012-4.399 0.022-6.599-0.021-0.016-0-0.036-0-0.055-0-0.919 0-1.763 0.319-2.427 0.853-1.582 1.179-3.173 2.363-4.782 3.514-0.727 0.518-1.493 0.99-2.381 1.118-0.194 0.031-0.419 0.049-0.648 0.050q-5.512 0-11.023 0c-0.384-0.005-0.751-0.067-1.095-0.18-0.627-0.208-1.102-0.785-1.164-1.481-0.002-0.036-0.003-0.070-0.003-0.105 0-0.724 0.419-1.35 1.029-1.649 0.331-0.15 0.704-0.239 1.097-0.25 2.3-0.023 4.597-0.009 6.893-0.019 0.251 0 0.335 0.124 0.444 0.346 0.22 0.506 0.478 0.942 0.782 1.341 0.28 0.372 0.74 0.62 1.257 0.62 0.331 0 0.638-0.101 0.892-0.275 1.524-0.962 3.034-1.965 4.553-2.953 0.069-0.045 0.143-0.085 0.214-0.126z"></path>
<path fill="#444" d="M23.777 0.524c-0.048 0.468-0.086 0.886-0.133 1.305-0.010 0.059-0.015 0.126-0.015 0.195 0 0.358 0.15 0.681 0.39 0.91 0.327 0.328 0.778 0.531 1.277 0.531 0.15 0 0.296-0.018 0.436-0.053 0.62-0.124 1.073-0.568 1.142-1.112 0.050-0.399 0.083-0.8 0.124-1.201l0.024-0.242c0.168 0.109 0.311 0.214 0.448 0.325 0.621 0.57 0.981 1.237 0.934 2.016-0.057 0.988-0.608 1.728-1.622 2.2-0.116 0.037-0.2 0.139-0.211 0.262q-0.43 4.321-0.874 8.623c-0.004 0.026-0.006 0.056-0.006 0.087 0 0.151 0.056 0.288 0.149 0.393 0.251 0.295 0.403 0.681 0.403 1.103 0 0.509-0.222 0.966-0.575 1.279-0.866 0.848-2.471 0.853-3.437 0.065s-1.004-2.111-0.031-2.886c0.080-0.063 0.135-0.153 0.153-0.257q0.455-4.377 0.899-8.752c0.001-0.009 0.002-0.020 0.002-0.030 0-0.115-0.065-0.216-0.161-0.266-1.73-1.252-1.512-3.495 0.406-4.383 0.078-0.035 0.154-0.062 0.278-0.112zM24.774 15.965c0.047-0.613 0.121-0.42-0.365-0.767-0.152-0.121-0.346-0.195-0.558-0.195-0.143 0-0.279 0.034-0.399 0.093-0.351 0.129-0.484 0.291-0.513 0.618s0.071 0.518 0.394 0.708c0.15 0.114 0.34 0.182 0.546 0.182 0.141 0 0.275-0.032 0.394-0.090 0.323-0.134 0.589-0.252 0.499-0.551z"></path>
<path fill="#444" d="M2.158 22.345c0.014-0.14 0.036-0.267 0.066-0.39 0.169-0.541 0.323-1.112 0.537-1.652 0.346-0.878 0.729-1.745 1.121-2.602 0.413-0.904 0.84-1.8 1.287-2.683 0.632-1.249 1.272-2.493 1.944-3.72 0.624-1.14 1.287-2.258 1.944-3.38 0.228-0.389 0.484-0.759 0.731-1.135 0.133-0.202 0.238-0.237 0.448-0.128 0.252 0.133 0.501 0.278 0.746 0.427 0.097 0.045 0.163 0.142 0.163 0.254 0 0.051-0.014 0.098-0.037 0.139-0.345 0.833-0.69 1.673-1.067 2.497q-0.608 1.351-1.263 2.68c-0.454 0.919-0.924 1.828-1.406 2.732-0.53 0.994-1.063 1.987-1.628 2.96s-1.173 1.963-1.79 2.924c-0.278 0.432-0.629 0.816-0.949 1.22-0.010 0.011-0.020 0.021-0.031 0.031-0.285 0.28-0.425 0.291-0.747 0.056z"></path>
<path fill="#444" d="M14.454 0.365c0 0.335 0.021 0.67 0 1.004-0.019 0.911-0.183 1.777-0.469 2.586-0.328 0.867-0.917 1.598-1.838 1.973-0.151 0.074-0.329 0.118-0.517 0.118-0.28 0-0.537-0.096-0.74-0.258-0.3-0.25-0.499-0.617-0.529-1.030-0.014-0.126-0.022-0.267-0.022-0.409 0-0.721 0.206-1.395 0.562-1.965 0.164-0.28 0.355-0.351 0.682-0.269 0.145 0.036 0.289 0.078 0.43 0.121 0.086 0.030 0.186 0.048 0.29 0.048 0.281 0 0.532-0.128 0.697-0.33 0.245-0.293 0.452-0.629 0.605-0.992 0.139-0.292 0.276-0.555 0.423-0.81 0.025-0.085 0.103-0.146 0.194-0.146 0.052 0 0.099 0.019 0.134 0.051z"></path>
<path fill="#444" d="M10.257 6.274c-0.081-0.261 0.095-0.46 0.311-0.399 0.119 0.043 0.222 0.094 0.317 0.156 0.18 0.098-0.108 0.271 0.077 0.378 0.059 0.035 0.591 0 0.639 0.052 0.052 0.052 0.084 0.124 0.084 0.203 0 0.052-0.014 0.101-0.039 0.144-0.035 0.080-0.115 0.137-0.209 0.137-0.034 0-0.067-0.008-0.096-0.021-0.183-0.082-0.36-0.184-0.538-0.281-0.131-0.071-0.266-0.142-0.39-0.225-0.059-0.043-0.11-0.090-0.156-0.142z"></path>
<path fill="#444" d="M18.355 10.618c-0.708 1.451-1.424 2.899-2.12 4.356-0.373 0.781-1.095 1.133-2.217 1.037-0.008-0.001-0.016-0.001-0.025-0.001-0.121 0-0.228 0.057-0.297 0.145q-1.373 2.765-2.715 5.559c-0.041 0.106-0.065 0.23-0.065 0.359 0 0.028 0.001 0.056 0.003 0.084 0.002 0.034 0.003 0.078 0.003 0.122 0 0.553-0.185 1.063-0.497 1.471-0.379 0.476-0.742 0.974-1.107 1.466-0.079 0.107-0.173 0.138-0.346 0.050q-0.598-0.302-1.21-0.587c-0.173-0.083-0.214-0.173-0.173-0.302 0.209-0.733 0.346-1.493 0.641-2.189 0.162-0.39 0.56-0.676 0.85-1.009 0.104-0.101 0.196-0.215 0.272-0.338 0.899-1.827 1.786-3.65 2.681-5.469 0.069-0.142 0.048-0.251-0.097-0.404-0.734-0.778-0.921-1.555-0.562-2.288q2.163-4.449 4.339-8.893c0.346-0.691 1.037-1.037 2.037-0.95 0.985 0.069 1.845 0.553 2.414 1.277 0.57 0.717 0.664 1.403 0.351 2.046q-1.085 2.234-2.162 4.46zM14.692 8.836v0q-0.824 1.69-1.648 3.381c-0.135 0.278-0.271 0.555-0.394 0.84-0.066 0.152 0 0.309 0.214 0.418s0.373 0.066 0.472-0.069c0.044-0.065 0.085-0.139 0.119-0.217l3.922-8.044c0.157-0.325 0.114-0.508-0.145-0.629s-0.408-0.040-0.56 0.273q-1 2.020-1.987 4.047zM17.199 10.046l1.968-4.054c0.056-0.063 0.090-0.146 0.090-0.237-0.047-0.154-0.139-0.282-0.261-0.372-0.041-0.010-0.086-0.015-0.132-0.015-0.103 0-0.201 0.026-0.286 0.071-0.055 0.048-0.096 0.116-0.112 0.193l-3.94 8.082c-0.054 0.063-0.089 0.145-0.093 0.234 0.032 0.156 0.111 0.29 0.221 0.389 0.055 0.047 0.127 0.075 0.205 0.075 0.108 0 0.203-0.054 0.26-0.136 0.043-0.066 0.084-0.141 0.118-0.219z"></path>
</svg>
