<!-- Generated by IcoMoon.io -->
<svg version="1.1" xmlns="http://www.w3.org/2000/svg" width="37" height="32" viewBox="0 0 37 32">
<title>panther-wall</title>
<path fill="#444" d="M0.243 0.146h6.407v5.519h-6.407v-5.519z"></path>
<path fill="#444" d="M0.243 6.694h13.828v5.519h-13.828v-5.519z"></path>
<path fill="#444" d="M7.881 0.146h13.828v5.519h-13.828v-5.519z"></path>
<path fill="#444" d="M15.301 6.694h13.828v5.519h-13.828v-5.519z"></path>
<path fill="#444" d="M22.939 0.146h13.828v5.519h-13.828v-5.519z"></path>
<path fill="#444" d="M30.359 6.694h6.407v5.519h-6.407v-5.519z"></path>
<path fill="#444" d="M0.243 13.239h6.407v5.519h-6.407v-5.519z"></path>
<path fill="#444" d="M0.243 19.789h13.828v5.519h-13.828v-5.519z"></path>
<path fill="#444" d="M7.881 13.239h13.828v5.519h-13.828v-5.519z"></path>
<path fill="#444" d="M15.301 19.789h13.828v5.519h-13.828v-5.519z"></path>
<path fill="#444" d="M22.939 13.239h13.828v5.519h-13.828v-5.519z"></path>
<path fill="#444" d="M30.359 19.789h6.407v5.519h-6.407v-5.519z"></path>
<path fill="#444" d="M0.146 26.334h6.407v5.519h-6.407v-5.519z"></path>
<path fill="#444" d="M7.784 26.334h13.828v5.519h-13.828v-5.519z"></path>
<path fill="#444" d="M22.839 26.334h13.828v5.519h-13.828v-5.519z"></path>
</svg>
