<!-- Generated by IcoMoon.io -->
<svg version="1.1" xmlns="http://www.w3.org/2000/svg" width="32" height="32" viewBox="0 0 32 32">
<title>panther-skill</title>
<path fill="#444" d="M26.31 6.982c-0.066 0.642-0.118 1.216-0.182 1.788-0.016 0.094-0.026 0.201-0.026 0.311 0 0.456 0.162 0.875 0.432 1.201 0.329 0.422 0.841 0.692 1.417 0.692 0.186 0 0.364-0.028 0.533-0.080 0.712-0.186 1.253-0.793 1.344-1.539 0.067-0.556 0.115-1.106 0.172-1.655l0.033-0.332c0.182 0.14 0.343 0.28 0.496 0.428 0.708 0.774 1.104 1.68 1.034 2.747-0.060 1.314-0.814 2.439-1.901 3.024-0.16 0.075-0.258 0.211-0.267 0.371q-0.592 5.914-1.201 11.831c-0.007 0.041-0.010 0.088-0.010 0.136 0 0.193 0.061 0.371 0.164 0.518 0.275 0.413 0.439 0.924 0.439 1.473 0 0.69-0.26 1.32-0.688 1.796-0.493 0.508-1.185 0.825-1.952 0.825-1.502 0-2.72-1.218-2.72-2.72 0-0.736 0.292-1.404 0.767-1.894 0.095-0.093 0.16-0.216 0.181-0.355q0.621-6.004 1.23-12.004c0.003-0.017 0.004-0.037 0.004-0.058 0-0.143-0.072-0.269-0.181-0.345-0.798-0.681-1.299-1.686-1.299-2.808 0-1.366 0.744-2.559 1.848-3.195 0.095-0.050 0.192-0.089 0.334-0.157zM27.097 28.104c0.068-0.842 0.147-0.582-0.401-1.041-0.363-0.306-0.661-0.314-1.088-0.12-0.367 0.172-0.616 0.538-0.616 0.962 0 0.352 0.172 0.665 0.437 0.857 0.375 0.27 0.657 0.32 1.074 0.111 0.384-0.198 0.69-0.363 0.595-0.772z"></path>
<path fill="#444" d="M0 24.361c0.054-0.173 0.113-0.318 0.181-0.458 0.354-0.621 0.692-1.278 1.103-1.887 0.667-0.987 1.367-1.951 2.083-2.909 0.753-1.003 1.521-1.994 2.314-2.963 1.119-1.371 2.246-2.736 3.408-4.073 1.080-1.241 2.205-2.446 3.32-3.654 0.388-0.419 0.805-0.809 1.212-1.21 0.219-0.215 0.363-0.231 0.597-0.048 0.285 0.223 0.562 0.458 0.834 0.698 0.089 0.062 0.147 0.164 0.147 0.279 0 0.088-0.034 0.169-0.089 0.229-0.659 0.933-1.307 1.873-1.988 2.791q-1.115 1.503-2.281 2.965-1.212 1.517-2.477 2.994c-0.923 1.084-1.852 2.168-2.814 3.219s-1.976 2.118-3.008 3.132c-0.463 0.462-1.005 0.844-1.509 1.261-0.013 0.010-0.028 0.019-0.044 0.028-0.435 0.275-0.613 0.253-0.96-0.109z"></path>
<path fill="#444" d="M21.159 0.504c-0.083 0.409-0.145 0.822-0.252 1.226-0.266 1.126-0.685 2.118-1.241 3.016-0.654 0.998-1.579 1.751-2.84 1.989-0.582 0.111-1.131 0-1.552-0.467-0.263-0.309-0.422-0.712-0.422-1.153 0-0.086 0.006-0.171 0.018-0.255 0.108-1.063 0.574-2.010 1.274-2.728 0.292-0.319 0.554-0.358 0.945-0.183 0.173 0.078 0.343 0.163 0.514 0.25 0.167 0.093 0.366 0.148 0.578 0.148 0.281 0 0.54-0.097 0.745-0.259 0.396-0.31 0.737-0.67 1.021-1.074 0.241-0.311 0.484-0.598 0.734-0.875 0.046-0.082 0.133-0.137 0.232-0.137 0.084 0 0.159 0.039 0.207 0.1z"></path>
<path fill="#444" d="M14.344 6.706c-0.037-0.337 0.237-0.537 0.495-0.411 0.134 0.077 0.251 0.163 0.356 0.259 0.208 0.167-0.195 0.309-0.002 0.483 0.066 0.056 0.745 0.147 0.795 0.217 0.040 0.056 0.063 0.125 0.063 0.2 0 0.093-0.037 0.178-0.097 0.24-0.056 0.076-0.144 0.124-0.244 0.124-0.064 0-0.123-0.020-0.172-0.053-0.21-0.143-0.408-0.312-0.608-0.473-0.147-0.118-0.299-0.235-0.436-0.367-0.056-0.065-0.106-0.137-0.148-0.215z"></path>
<path fill="#444" d="M18.446 16.341c-0.743 1.522-1.491 3.043-2.226 4.571-0.325 0.761-1.066 1.284-1.93 1.284-0.003 0-0.007 0-0.010-0-0.119 0.015-0.22 0.083-0.28 0.179q-1.436 2.911-2.848 5.833c-0.055 0.131-0.090 0.282-0.099 0.441-0.052 0.621-0.262 1.181-0.589 1.653-0.361 0.512-0.714 1.046-1.069 1.577-0.030 0.072-0.099 0.121-0.18 0.121-0.041 0-0.079-0.013-0.11-0.034q-0.457-0.234-0.922-0.45c-0.080-0.025-0.138-0.099-0.138-0.186 0-0.035 0.009-0.068 0.026-0.097 0.252-0.752 0.455-1.523 0.775-2.249 0.177-0.407 0.535-0.735 0.811-1.1 0.095-0.109 0.183-0.229 0.26-0.357q1.412-2.876 2.811-5.744c0.030-0.049 0.048-0.107 0.048-0.171 0-0.084-0.032-0.16-0.083-0.218-0.279-0.341-0.448-0.782-0.448-1.263 0-0.349 0.089-0.677 0.246-0.962q2.266-4.658 4.547-9.32c0.339-0.699 1.044-1.172 1.859-1.172 0.75 0 1.406 0.401 1.767 1 0.192 0.306 0.302 0.666 0.302 1.053 0 0.347-0.089 0.673-0.246 0.957q-1.135 2.317-2.272 4.652zM15.633 14.984v0q-0.865 1.773-1.73 3.547c-0.142 0.291-0.285 0.582-0.417 0.879-0.022 0.039-0.035 0.085-0.035 0.134 0 0.112 0.067 0.209 0.163 0.253 0.040 0.022 0.087 0.034 0.136 0.034 0.11 0 0.206-0.063 0.253-0.154 0.042-0.068 0.085-0.146 0.121-0.227l4.117-8.444c0.165-0.339 0.151-0.518-0.049-0.609s-0.33 0-0.491 0.334q-1.032 2.118-2.067 4.245zM17.559 15.903l2.073-4.249c0.052-0.068 0.087-0.151 0.099-0.242-0.014-0.139-0.079-0.258-0.174-0.343-0.026-0.007-0.056-0.010-0.086-0.010-0.189 0-0.347 0.136-0.381 0.316l-4.135 8.48c-0.051 0.068-0.088 0.151-0.102 0.241 0.004 0.142 0.056 0.267 0.14 0.365 0.041 0.028 0.092 0.045 0.147 0.045 0.108 0 0.2-0.066 0.239-0.159 0.041-0.068 0.083-0.147 0.119-0.228z"></path>
</svg>
