<!-- Generated by IcoMoon.io -->
<svg version="1.1" xmlns="http://www.w3.org/2000/svg" width="32" height="32" viewBox="0 0 32 32">
<title>panther-logo</title>
<path fill="#444" d="M9.65 30.646c0.723-1.223 1.435-2.431 2.151-3.636 0.786-1.31 1.572-2.619 2.358-3.929 0.631-1.066 1.255-2.14 1.886-3.209q1.092-1.834 2.195-3.683c0.1-0.168 0.173-0.411 0.32-0.472s0.377 0.060 0.571 0.1c0.501 0.108 1.078 0.171 1.668 0.171 0.999 0 1.956-0.178 2.842-0.503 1.457-0.518 2.718-1.456 3.635-2.668 0.965-1.22 1.567-2.735 1.646-4.387 0.024-0.586 0.001-1.157 0.001-1.694 3.735 4.849 4.508 13.003-0.39 19.177-5.328 6.706-13.771 7.183-18.881 4.733z"></path>
<path fill="#444" d="M6.161 28.582c-4.977-3.667-7.885-11.235-5.048-18.373 3.209-8.073 11.191-10.866 16.841-9.999-2.757 1.034-4.771 3.454-5.207 6.389-0.060 0.399-0.092 0.808-0.092 1.225 0 1.2 0.26 2.34 0.728 3.365 0.386 0.844 0.904 1.613 1.529 2.28 0.048 0.039 0.082 0.104 0.082 0.177 0 0.057-0.021 0.11-0.055 0.151-0.246 0.419-0.497 0.833-0.746 1.252l-1.758 2.973c-0.524 0.904-1.077 1.807-1.611 2.714q-0.872 1.475-1.739 2.95l-1.443 2.436-1.396 2.326z"></path>
<path fill="#444" d="M25.166 0c0.103 0.013 0.191 0.070 0.245 0.151 0.857 1.45 1.703 2.904 2.555 4.355 0.241 0.414 0.498 0.82 0.728 1.239 0.021 0.045 0.033 0.097 0.033 0.152s-0.012 0.107-0.034 0.154c-0.575 1.012-1.167 2.020-1.752 3.029-0.471 0.812-0.946 1.621-1.412 2.439-0.055 0.127-0.179 0.214-0.323 0.214-0.011 0-0.021-0.001-0.032-0.001-1.984 0.016-3.97 0.045-5.955 0.068-0.025 0.001-0.054 0.002-0.083 0.002-0.105 0-0.208-0.010-0.307-0.030-0.091-0.016-0.177-0.068-0.238-0.142-1.017-1.727-2.010-3.469-3.047-5.185-0.112-0.143-0.179-0.326-0.179-0.524s0.067-0.381 0.18-0.526c0.816-1.384 1.589-2.798 2.377-4.189 0.199-0.354 0.396-0.707 0.605-1.048 0.051-0.063 0.126-0.104 0.212-0.107 0.98-0.008 5.258-0.058 6.426-0.050z"></path>
</svg>
