<!-- Generated by IcoMoon.io -->
<svg version="1.1" xmlns="http://www.w3.org/2000/svg" width="30" height="32" viewBox="0 0 30 32">
<title>panther-apply</title>
<path fill="#444" d="M12.001 2.035c0.366 0.12 0.737 0.229 1.1 0.361 2.429 0.878 4.146 2.489 4.932 4.974 0.715 2.255 0.347 4.41-0.803 6.45-0.171 0.3-0.338 0.553-0.519 0.795-0.033 0.029-0.062 0.096-0.062 0.169 0 0.080 0.035 0.152 0.090 0.203 1.176 1.511 11.859 15.344 12.624 16.337 0.057 0.075 0.113 0.154 0.184 0.252 2.255 0.67-8.233 0.347-8.587 0.363-0.375-0.5-8.884-11.519-10.117-13.131-0.075-0.12-0.207-0.198-0.357-0.198-0.041 0-0.081 0.006-0.118 0.017-0.575 0.125-1.24 0.198-1.921 0.198-0.538 0-1.065-0.045-1.578-0.131-1.571-0.24-3.007-0.911-4.179-1.889-1.196-0.998-2.076-2.366-2.463-3.928-0.148-0.591-0.227-1.211-0.227-1.849s0.079-1.258 0.228-1.849c0.215-0.873 0.555-1.687 1.002-2.43 0.016-0.026 0.066-0.083 0.151-0.191 0.156 0.356 0.297 0.666 0.429 0.978 0.661 1.561 1.325 3.123 1.978 4.684 0.059 0.182 0.224 0.313 0.421 0.321 1.77 0.205 5.753 0.663 5.965 0.715 0.031 0.009 0.067 0.014 0.104 0.014 0.159 0 0.296-0.092 0.36-0.226 1.042-1.39 3.46-4.615 3.632-4.827 0.064-0.065 0.103-0.154 0.103-0.252 0-0.064-0.017-0.125-0.047-0.177q-1.172-2.705-2.322-5.419c-0.033-0.084-0.068-0.192-0.097-0.303z"></path>
<path fill="#444" d="M12.525 5.558q-0.989-2.306-1.969-4.613c-0.056-0.178-0.214-0.307-0.405-0.317-1.032-0.113-2.059-0.25-3.087-0.373-0.694-0.085-1.388-0.163-2.16-0.253-0.098 0.077-0.185 0.159-0.263 0.249-1.013 1.338-2.016 2.677-3.027 4.011-0.075 0.079-0.121 0.185-0.121 0.302 0 0.075 0.019 0.146 0.052 0.208 0.668 1.536 1.324 3.098 1.978 4.643 0.059 0.177 0.22 0.305 0.412 0.312q2.527 0.298 5.051 0.626c0.020 0.003 0.043 0.005 0.067 0.005 0.17 0 0.318-0.093 0.395-0.232 1.002-1.342 2.003-2.684 3.020-4.015 0.074-0.084 0.12-0.196 0.12-0.318 0-0.087-0.023-0.169-0.064-0.24zM7.038 8.174c-1.654 0-2.994-1.341-2.994-2.994s1.341-2.994 2.994-2.994c1.654 0 2.994 1.341 2.994 2.994s-1.341 2.993-2.994 2.994z"></path>
</svg>
