<!-- Generated by IcoMoon.io -->
<svg version="1.1" xmlns="http://www.w3.org/2000/svg" width="31" height="32" viewBox="0 0 31 32">
<title>panther-activity</title>
<path fill="#444" d="M11.146 17.425l-1.31 2.803h-0.072l-1.654-4.793h-0.061c-0.035 0.089-0.075 0.175-0.105 0.264-0.269 0.825-0.54 1.649-0.799 2.476-0.022 0.156-0.154 0.275-0.315 0.275-0.013 0-0.025-0.001-0.037-0.002q-3.283-0.012-6.567 0c-0.014 0.003-0.029 0.005-0.045 0.005-0.107 0-0.194-0.087-0.194-0.194 0-0.016 0.002-0.032 0.006-0.046-0-0.305-0-0.611-0-0.917-0.006-0.019-0.010-0.041-0.010-0.063 0-0.117 0.095-0.213 0.213-0.213 0.019 0 0.038 0.003 0.055 0.007 1.138-0 2.278-0 3.418-0 0.619 0 1.238 0 1.869 0 0.011 0.002 0.024 0.002 0.038 0.002 0.151 0 0.276-0.112 0.296-0.258q1.012-3.148 2.039-6.292c0.028-0.086 0.061-0.171 0.091-0.257h0.072l1.943 5.62 0.068 0.014 1.549-3.317h0.072l2.179 8.54h0.075l1.212-21.073h0.063c0.023 0.098 0.051 0.196 0.070 0.297q0.526 2.747 1.051 5.494 0.799 4.153 1.605 8.306c0.189 0.976 0.378 1.953 0.554 2.931-0 0.002-0 0.004-0 0.007 0 0.16 0.13 0.29 0.29 0.29 0.017 0 0.034-0.002 0.051-0.004q2.535-0.014 5.072 0c0.014 0.002 0.031 0.003 0.047 0.003 0.17 0 0.311-0.127 0.333-0.291 0.612-1.971 1.238-3.938 1.869-5.904 0.019-0.063 0.049-0.121 0.1-0.25 0.138 0.42 0.257 0.773 0.369 1.126 0.533 1.684 1.065 3.368 1.588 5.055 0.023 0.149 0.149 0.261 0.303 0.261 0.018 0 0.037-0.002 0.054-0.005 0.82 0 1.633 0 2.467 0 0.014-0.004 0.031-0.006 0.048-0.006 0.106 0 0.192 0.086 0.192 0.192 0 0.017-0.002 0.034-0.006 0.050-0.011 0.321 0 0.641 0 0.963 0.007 0.018 0.011 0.039 0.011 0.060 0 0.098-0.079 0.178-0.178 0.178-0.014 0-0.027-0.002-0.040-0.004q-1.912 0-3.825 0c-0.008 0.001-0.018 0.001-0.028 0.001-0.148 0-0.27-0.111-0.288-0.255-0.175-0.585-0.362-1.169-0.547-1.746-0.029-0.104-0.081-0.193-0.15-0.267-0.028 0.073-0.060 0.143-0.084 0.218-0.185 0.582-0.374 1.168-0.544 1.747-0.023 0.173-0.17 0.305-0.347 0.305-0.018 0-0.035-0.001-0.052-0.004-2.481 0-4.964 0-7.449 0-0.621 0-0.624 0-0.745-0.628q-0.404-2.102-0.806-4.204c-0.021-0.105-0.049-0.208-0.075-0.311h-0.065l-1.053 18.392h-0.079l-3.714-14.57z"></path>
</svg>
