<!-- Generated by IcoMoon.io -->
<svg version="1.1" xmlns="http://www.w3.org/2000/svg" width="33" height="32" viewBox="0 0 33 32">
<title>panther-observer</title>
<path fill="#444" d="M11.651 12.904v3.16h3.95v3.16h-3.95v0.361l3.15 7.803h-14.8l4.308-22.912h1.022v-2.634h-1.58v-1.843h7.901v1.843h-1.58v2.634h1.58v1.58h3.95v6.847h-3.95z"></path>
<path fill="#444" d="M0 29.53h14.737v2.47h-14.737v-2.47z"></path>
<path fill="#444" d="M20.868 12.904v3.16h-3.16v3.16h3.16v0.361l-2.573 7.803h14.8l-4.308-22.912h-1.335v-2.634h1.843v-1.843h-8.427v1.843h1.843v2.634h-1.843v1.58h-3.16v6.847h3.16z"></path>
<path fill="#444" d="M33.343 31.997h-14.737v-2.47h14.737v2.47z"></path>
<path fill="#444" d="M13.8 12.475h5.496v3.31h-5.496v-3.31z"></path>
</svg>
