<!-- Generated by IcoMoon.io -->
<svg version="1.1" xmlns="http://www.w3.org/2000/svg" width="35" height="32" viewBox="0 0 35 32">
<title>panther-note</title>
<path fill="#444" d="M15.201 27.38c-1.013 0-2.043 0-3.066 0-0.347 0-0.435-0.109-0.433-0.41 0-1.843 0-3.686 0.018-5.529 0.012-0.255 0.119-0.483 0.286-0.651 1.719-1.597 3.458-3.177 5.192-4.762l10.66-9.738c0.41-0.375 0.408-0.385 0.815 0 2.061 1.883 4.116 3.772 6.187 5.648 0.266 0.253 0.271 0.382 0 0.628q-7.913 7.212-15.804 14.444c-0.244 0.244-0.581 0.395-0.953 0.395-0.030 0-0.060-0.001-0.089-0.003-0.935-0.028-1.874 0-2.816 0v0zM13.872 23.391c0 0.686 0.015 1.159 0 1.63 0 0.284 0.071 0.397 0.408 0.392 1.013-0.018 2.043 0 3.066-0.015 0.245-0.012 0.467-0.101 0.645-0.242 0.529-0.444 1.025-0.925 1.537-1.39q3.883-3.544 7.772-7.103c0.223-0.203 0.195-0.324-0.015-0.506-1.089-0.977-2.172-1.959-3.235-2.959-0.273-0.253-0.425-0.225-0.681 0-2.716 2.499-5.41 5.022-8.192 7.46-0.987 0.853-1.656 1.678-1.311 2.734zM32.078 12.237c-0.076-0.092-0.152-0.174-0.232-0.253-1.094-1.013-2.198-2-3.291-3.010-0.063-0.091-0.166-0.149-0.284-0.149s-0.221 0.059-0.283 0.148q-1.216 1.133-2.459 2.236c-0.253 0.213-0.253 0.349 0 0.57q1.645 1.476 3.258 2.979c0.218 0.203 0.362 0.228 0.595 0 0.813-0.759 1.645-1.519 2.468-2.278 0.058-0.063 0.132-0.144 0.22-0.243z"></path>
<path fill="#444" d="M15.267 32h-10.505c-1.213 0-2.423 0-3.635 0-0.686 0-1.114-0.395-1.129-0.949s0.43-1.013 1.149-1.013c0.954-0.023 1.906-0.025 2.861-0.023h23.135c0.572 0 0.577 0 0.577-0.506 0-2.18 0-4.359 0-6.539 0-0.532 0-0.534 0.58-0.542 0.382 0 0.759 0 1.144 0 0.334-0.018 0.451 0.089 0.448 0.402-0.013 1.63 0 3.263 0 4.896q0 1.906 0 3.812c0 0.471 0 0.481-0.524 0.481h-14.1z"></path>
<path fill="#444" d="M15.3 0.005h14.017c0.577 0 0.577 0 0.577 0.534q0 1.519 0 3.038c0 0.489 0 0.489-0.552 0.489-0.395 0-0.79-0.015-1.185 0-0.316 0.015-0.446-0.094-0.435-0.385 0.015-0.423-0.015-0.848 0.015-1.266 0.023-0.329-0.104-0.433-0.463-0.433-3.324 0-6.648 0-9.971 0h-16.1c-0.709 0-1.18-0.362-1.2-0.921-0.020-0.608 0.435-1.043 1.157-1.046 2.643 0 5.286 0 7.928 0h6.212z"></path>
<path fill="#444" d="M0.005 4.906h21.095v2.195h-21.095v-2.195z"></path>
<path fill="#444" d="M0.005 20.173h9.966v2.195h-9.966v-2.195z"></path>
<path fill="#444" d="M0.005 15.085h14.946v2.195h-14.946v-2.195z"></path>
<path fill="#444" d="M0.005 9.997h18.153v2.195h-18.153v-2.195z"></path>
<path fill="#444" d="M0.005 25.264h9.966v2.195h-9.966v-2.195z"></path>
</svg>
