<!-- Generated by IcoMoon.io -->
<svg version="1.1" xmlns="http://www.w3.org/2000/svg" width="38" height="32" viewBox="0 0 38 32">
<title>panther-swipe</title>
<path fill="#444" d="M9.789 31.762c-1.539-0.493-2.335-4.402-2.112-5.989 0.433-3.013 0.911-6.019 1.424-9.017 0.216-1.214 1.182-2.056 2.513-2.24 2.099-0.29 4.205-0.556 6.316-0.773 0.664-0.069 1.035-0.294 1.273-0.946 1.199-3.26 2.446-6.493 3.679-9.75 0.357-0.97 1.035-1.403 1.885-1.186s1.268 0.959 1.017 1.965c-0.97 3.909-1.976 7.811-2.97 11.713-0.303 1.193-0.6 2.381-0.916 3.573-0.19 0.719-0.095 1.353 0.513 1.827s1.266 0.374 1.889-0.015c1.095-0.684 2.164-1.398 3.285-2.052 0.866-0.513 1.846-0.264 2.221 0.528 0.329 0.697 0.169 1.329-0.379 1.846-3.264 3.084-6.943 7.067-10.222 10.133-0.777 0.734-8.274 0.747-9.417 0.381z"></path>
<path fill="#444" d="M30.691 8.259c-0.071 0.158-0.102 0.242-0.145 0.318-0.894 1.539-0.896 1.563 0.831 1.706 2.080 0.173 4.164 0.305 6.248 0.433 0.279-0.017 0.541-0.067 0.789-0.147-0.096-0.275-0.105-0.598-0.254-0.831q-1.825-2.883-3.695-5.736c-0.478-0.732-0.675-0.708-1.162 0.052l-0.63 0.985c-0.922-0.485-1.799-0.97-2.695-1.409-1.115-0.545-2.054-0.745-2.255 0.476-0.123 0.755-0.675 1.701-0.407 2.281s2.164 1.054 2.814 1.448c0.171 0.119 0.329 0.258 0.561 0.424z"></path>
<path fill="#444" d="M18.294 4.267l-5.361-0.433c-0.635-0.051-1.108-0.608-1.057-1.243l0.124-1.532c0.051-0.635 0.608-1.108 1.243-1.057l5.361 0.433c0.635 0.051 1.108 0.608 1.057 1.243l-0.124 1.532c-0.051 0.635-0.608 1.108-1.243 1.057z"></path>
<path fill="#444" d="M8.717 4.408l-2.436 0.667c-0.615 0.168-1.249-0.194-1.417-0.808l-0.405-1.482c-0.168-0.615 0.194-1.249 0.808-1.417l2.436-0.666c0.615-0.168 1.249 0.194 1.417 0.808l0.405 1.482c0.168 0.615-0.194 1.249-0.808 1.417z"></path>
<path fill="#444" d="M3.020 6.79l-0.523 0.302c-0.552 0.319-1.257 0.13-1.576-0.422l-0.768-1.331c-0.319-0.552-0.13-1.257 0.422-1.576l0.523-0.302c0.552-0.319 1.257-0.13 1.576 0.422l0.768 1.331c0.319 0.552 0.13 1.257-0.422 1.576z"></path>
</svg>
