<!-- Generated by IcoMoon.io -->
<svg version="1.1" xmlns="http://www.w3.org/2000/svg" width="32" height="32" viewBox="0 0 32 32">
<title>panther-journal</title>
<path fill="#444" d="M24.225 0h-22.362v4.141h-1.863v2.071h1.863v4.141h-1.863v1.863h1.863v4.141h-1.863v2.071h1.863v3.727h-1.863v2.071h1.863v3.52l10.102 0.015c0.025-0.015 11.742-15.543 11.742-15.543zM3.949 23.19c0.019-0.718 2.613-0.7 2.609 0.041s-2.623 0.671-2.609-0.041zM3.949 17.295c0-0.731 2.621-0.696 2.607 0.037s-2.609 0.681-2.607-0.037zM3.949 11.291c-0.014-0.708 2.601-0.764 2.609-0.033s-2.596 0.739-2.609 0.033zM3.949 5.249c0-0.721 2.603-0.727 2.609 0s-2.623 0.735-2.609 0z"></path>
<path fill="#444" d="M24.225 25.198v2.547h-0.884c-1.603 0-3.205-0.023-4.808-0.025-0.106-0.014-0.201-0.036-0.292-0.067 0.041-0.097 0.079-0.183 0.125-0.264q2.842-3.721 5.693-7.423c0.046-0.058 0.093-0.118 0.143-0.174s0.101-0.104 0.151-0.155c0.026 0.070 0.045 0.151 0.055 0.235 0 0.359 0 0.715 0 1.067 0 0.797-0.091 1.594-0.091 2.391-0.002 0.623-0.093 1.246-0.093 1.868z"></path>
<path fill="#444" d="M32.219 7.394c-0.085 0.203-0.173 0.374-0.273 0.536-0.247 0.339-0.525 0.677-0.786 1.019-0.042 0.084-0.124 0.142-0.221 0.149-0.067-0.009-0.124-0.038-0.169-0.081-0.621-0.515-1.257-1.021-1.892-1.524-0.033-0.024-0.061-0.054-0.082-0.088-0.019-0.033-0.030-0.072-0.030-0.113 0-0.070 0.032-0.133 0.083-0.174 0.299-0.373 0.576-0.76 0.876-1.129 0.265-0.323 0.557-0.377 0.88-0.135 0.46 0.34 0.903 0.704 1.335 1.079 0.109 0.132 0.202 0.284 0.273 0.447z"></path>
<path fill="#444" d="M11.659 30.656c0.070-0.346 0.139-0.654 0.193-0.967 0.035-0.207 0.122-0.141 0.219-0.062 0.553 0.445 1.108 0.886 1.656 1.342 0.011 0.028 0.018 0.060 0.018 0.094 0 0.051-0.015 0.099-0.041 0.139-0.227 0.131-0.499 0.265-0.781 0.381-0.328 0.123-1.289-0.679-1.264-0.927z"></path>
<path fill="#444" d="M11.291 31.822l0.253-0.571 0.482 0.429c-0.207 0.11-0.395 0.224-0.598 0.323-0.051-0.053-0.096-0.112-0.134-0.176z"></path>
<path fill="#444" d="M30.406 9.939c-2.609 3.375-13.311 17.372-15.912 20.759-0.075 0.097-0.164 0.182-0.251 0.28-0.106-0.072-2.425-1.899-2.238-2.139q2.164-2.791 4.309-5.59c1.128-1.47 6.671-8.738 8.104-10.605 1.128-1.47 2.456-2.94 3.58-4.414 0.174-0.23 0.257-0.34 0.36-0.342 0.022 0.035 0.050 0.065 0.082 0.088 0.637 0.504 1.266 1.009 1.893 1.525 0.044 0.043 0.102 0.072 0.166 0.081 0.051 0.089 0.024 0.195-0.094 0.358z"></path>
<path fill="#444" d="M24.225 20.912v4.286c0-0.621 0.091-1.259 0.091-1.88 0-0.797 0.093-1.578 0.091-2.406h-0.182z"></path>
</svg>
