<!-- Generated by IcoMoon.io -->
<svg version="1.1" xmlns="http://www.w3.org/2000/svg" width="32" height="32" viewBox="0 0 32 32">
<title>panther-discover</title>
<path fill="#444" d="M10.839 22.628q1.697-2.762 3.399-5.523c0.078-0.109 0.125-0.245 0.125-0.392 0-0.082-0.015-0.161-0.042-0.234-0.043-0.147-0.068-0.321-0.068-0.501 0-1.032 0.836-1.868 1.868-1.868 0.079 0 0.157 0.005 0.234 0.015 0.009 0.002 0.030 0.004 0.052 0.004 0.114 0 0.216-0.049 0.287-0.127q2.24-2.187 4.484-4.359c0.074-0.081 0.165-0.145 0.266-0.188-0.030 0.062-0.061 0.127-0.098 0.188q-1.66 2.706-3.316 5.411c-0.039 0.068-0.062 0.15-0.062 0.238 0 0.044 0.006 0.086 0.017 0.127 0.066 0.182 0.105 0.395 0.105 0.618 0 1.041-0.844 1.885-1.885 1.885-0.080 0-0.158-0.005-0.235-0.015-0.008-0.002-0.027-0.003-0.047-0.003-0.115 0-0.218 0.050-0.289 0.131q-2.334 2.268-4.666 4.537c-0.033 0.031-0.068 0.059-0.101 0.090z"></path>
<path fill="#444" d="M15.918 4.479v3.434h-0.925v-4.796c0.376 0 0.748 0 1.122 0 0.077 0.025 0.139 0.080 0.172 0.151 0.506 0.979 1.005 1.959 1.503 2.937 0.020 0.046 0.055 0.082 0.099 0.102l0.001-3.177h0.919v4.799c-0.337 0-0.669 0-1.002 0-0.077-0.026-0.137-0.081-0.17-0.151q-0.819-1.594-1.626-3.191l-0.053-0.103h-0.039z"></path>
<path fill="#444" d="M15.999 0c-8.836 0-15.999 7.163-15.999 15.999s7.163 15.999 15.999 15.999c8.836 0 15.999-7.163 15.999-15.999s-7.163-15.999-15.999-15.999zM15.999 30.502c-8.009 0-14.501-6.492-14.501-14.501s6.492-14.501 14.501-14.501c8.008 0 14.499 6.491 14.501 14.498 0 0.001 0 0.002 0 0.002 0 8.009-6.492 14.501-14.501 14.501z"></path>
<path fill="#444" d="M29.9 14.643v2.716h-4.593v-2.716h4.593z"></path>
<path fill="#444" d="M2.579 17.41v-2.716h4.593v2.716h-4.593z"></path>
<path fill="#444" d="M17.506 29.474h-2.716v-4.593h2.716v4.593z"></path>
</svg>
