<!-- Generated by IcoMoon.io -->
<svg version="1.1" xmlns="http://www.w3.org/2000/svg" width="30" height="32" viewBox="0 0 30 32">
<title>panther-goal</title>
<path fill="#444" d="M16.124 0c0.721 0.124 1.452 0.219 2.166 0.379 6.343 1.421 10.647 6.015 11.472 12.231 0.797 5.991-2.178 11.555-7.67 14.344-0.171 0.088-0.353 0.159-0.62 0.279l-1.050-2.709c6.013-3.148 7.344-9.266 5.744-13.854-1.558-4.467-6.198-7.656-11.109-7.644-5.156 0.014-9.659 3.086-11.314 7.672-1.594 4.383-0.273 10.36 5.698 13.747-0.015 0.099-0.037 0.188-0.065 0.272-0.333 0.799-0.674 1.608-1.098 2.624-1.156-0.797-2.327-1.462-3.307-2.323-3.542-3.11-5.158-7.037-4.949-11.621 0.291-6.359 5.748-12.143 12.292-13.117 0.63-0.094 1.257-0.199 1.887-0.289h1.927z"></path>
<path fill="#444" d="M19.6 22.654l-1.082-3.006h3.516l0.090-0.169-2.112-1.532c2.245-3.387 0.657-6.684-1.287-8.224-2.221-1.761-5.481-1.685-7.77 0.132-2.004 1.594-3.351 4.77-1.124 8.103l-2.086 1.492 0.050 0.145h3.552l-1.072 3.010c-3.463-1.488-5.682-5.529-4.931-9.935 0.743-4.361 4.819-7.62 9.577-7.658 4.624-0.036 8.786 3.138 9.601 7.371s-1.074 8.583-4.923 10.272z"></path>
<path fill="#444" d="M14.926 14.344l-2.711 1.917c-0.905-1.359-0.628-3.373 0.568-4.383s3.034-0.996 4.275 0.018c0.757 0.626 1.236 1.565 1.236 2.616 0 0.679-0.2 1.312-0.544 1.842z"></path>
<path fill="#444" d="M7.214 32h15.175c-0.293-0.996-4.052-11.145-4.321-11.898-0.347-0.972-0.319-1.038 0.787-1.042 0.518 0 1.036-0.014 1.755-0.014-1.992-1.422-3.839-2.733-5.69-4.046l-5.68 4.040h2.191c0.486 0 0.671 0.199 0.474 0.709-0.333 0.849-4.353 11.055-4.692 12.251zM16.653 30.805h-3.265l0.845-6.575h1.47zM14.944 17.375l0.114-0.010 0.159 2.084h-0.46zM14.679 19.847h0.538l0.297 3.387h-1.134z"></path>
</svg>
