<!-- Generated by IcoMoon.io -->
<svg version="1.1" xmlns="http://www.w3.org/2000/svg" width="33" height="32" viewBox="0 0 33 32">
<title>panther-teach</title>
<path fill="#444" d="M0.059 0v18.333h32.892v-18.333h-32.892zM31.872 17.434h-30.735v-16.356h30.735v16.356z"></path>
<path fill="#444" d="M18.213 20.693h-2.57q-6.373 0-12.749 0c-0.3 0-0.412-0.072-0.397-0.377 0.025-0.539 0.020-1.078 0-1.618-0.001-0.019-0.001-0.042-0.001-0.065 0-0.585 0.293-1.102 0.74-1.413 1.201-0.938 2.548-1.792 3.975-2.509 0.393-0.152 0.572-0.39 0.572-0.67 0-0.029-0.002-0.058-0.006-0.087-0.027-0.775 0-1.555-0.018-2.333 0-0.18-0.138-0.359-0.216-0.528-0.14-0.322-0.392-0.638-0.406-0.963-0.050-1.1-0.043-2.205-0.011-3.305 0.043-1.461 1.138-2.581 2.624-2.709 0.963-0.083 1.912-0.068 2.727 0.573 0.686 0.519 1.125 1.334 1.125 2.251 0 0.010-0 0.019-0 0.029 0.013 0.992 0 1.988 0 2.982 0.001 0.019 0.001 0.041 0.001 0.063 0 0.447-0.188 0.849-0.489 1.133-0.094 0.098-0.153 0.228-0.159 0.372-0.013 0.876-0 1.75-0.011 2.625 0 0.259 0.142 0.359 0.336 0.449 1.563 0.788 2.902 1.631 4.154 2.583 0.505 0.381 0.816 0.88 0.769 1.604-0.031 0.62 0.009 1.242 0.009 1.911z"></path>
<path fill="#444" d="M8.665 31.993h-1.416q-3.516 0-7.031 0c-0.165 0-0.226-0.040-0.219-0.209 0.014-0.297 0.011-0.595 0-0.899-0-0.011-0.001-0.024-0.001-0.037 0-0.323 0.161-0.607 0.407-0.778 0.662-0.517 1.405-0.988 2.193-1.383 0.217-0.086 0.315-0.218 0.315-0.373 0-0.015-0.001-0.030-0.003-0.044-0.014-0.428 0-0.857-0.009-1.287-0.024-0.11-0.065-0.208-0.121-0.295-0.075-0.176-0.214-0.356-0.223-0.536-0.029-0.608-0.023-1.217 0-1.824 0.020-0.801 0.651-1.448 1.443-1.493 0.543-0.045 1.059-0.038 1.508 0.316 0.379 0.286 0.622 0.736 0.622 1.243 0 0.005-0 0.011-0 0.016 0 0.547 0 1.096 0 1.646 0 0.011 0.001 0.023 0.001 0.036 0 0.246-0.104 0.469-0.27 0.625-0.052 0.054-0.085 0.125-0.088 0.205-0 0.482-0 0.966-0 1.448-0 0.002-0 0.004-0 0.006 0 0.114 0.075 0.21 0.178 0.242 0.864 0.435 1.603 0.9 2.293 1.425 0.244 0.152 0.427 0.461 0.427 0.812 0 0.026-0.001 0.051-0.003 0.076-0.021 0.356-0.003 0.705-0.003 1.064z"></path>
<path fill="#444" d="M33.37 31.993h-1.413q-3.516 0-7.031 0c-0.165 0-0.226-0.040-0.219-0.209 0.014-0.297 0.011-0.595 0-0.899-0-0.011-0.001-0.024-0.001-0.037 0-0.323 0.161-0.607 0.407-0.778 0.661-0.512 1.403-0.979 2.189-1.371 0.217-0.086 0.315-0.218 0.315-0.373 0-0.015-0.001-0.030-0.003-0.044-0.014-0.428 0-0.857-0.009-1.287-0.024-0.11-0.065-0.208-0.121-0.295-0.075-0.176-0.214-0.356-0.223-0.536-0.029-0.608-0.023-1.217 0-1.824 0.020-0.801 0.651-1.448 1.443-1.493 0.543-0.045 1.059-0.038 1.509 0.316 0.379 0.286 0.622 0.736 0.622 1.243 0 0.005-0 0.011-0 0.016 0 0.547 0 1.096 0 1.646 0 0.011 0.001 0.023 0.001 0.036 0 0.246-0.104 0.469-0.27 0.625-0.052 0.054-0.085 0.125-0.088 0.205-0 0.482-0 0.966-0 1.448-0 0.002-0 0.004-0 0.006 0 0.114 0.075 0.21 0.178 0.242 0.864 0.435 1.603 0.9 2.293 1.425 0.244 0.152 0.427 0.461 0.427 0.812 0 0.026-0.001 0.051-0.003 0.076-0.021 0.344-0.003 0.692-0.003 1.052z"></path>
<path fill="#444" d="M21.016 31.993h-1.413q-3.516 0-7.031 0c-0.165 0-0.226-0.040-0.219-0.209 0.014-0.297 0.011-0.595 0-0.899-0-0.011-0.001-0.024-0.001-0.037 0-0.323 0.161-0.607 0.407-0.778 0.662-0.517 1.405-0.988 2.193-1.383 0.217-0.086 0.315-0.218 0.315-0.373 0-0.015-0.001-0.030-0.003-0.044-0.014-0.428 0-0.857-0.009-1.287-0.024-0.11-0.065-0.208-0.121-0.295-0.075-0.176-0.214-0.356-0.223-0.536-0.029-0.608-0.023-1.217 0-1.824 0.020-0.801 0.651-1.448 1.443-1.493 0.543-0.045 1.059-0.038 1.509 0.316 0.379 0.286 0.622 0.736 0.622 1.243 0 0.005-0 0.011-0 0.016 0 0.547 0 1.096 0 1.646 0 0.011 0.001 0.023 0.001 0.036 0 0.246-0.104 0.469-0.27 0.625-0.052 0.054-0.085 0.125-0.088 0.205-0 0.482-0 0.966-0 1.448-0 0.002-0 0.004-0 0.006 0 0.114 0.075 0.21 0.178 0.242 0.864 0.435 1.603 0.9 2.293 1.425 0.244 0.152 0.427 0.461 0.427 0.812 0 0.026-0.001 0.051-0.003 0.076-0.023 0.356-0.007 0.705-0.007 1.064z"></path>
</svg>
