<!-- Generated by IcoMoon.io -->
<svg version="1.1" xmlns="http://www.w3.org/2000/svg" width="39" height="32" viewBox="0 0 39 32">
<title>panther-mentorship</title>
<path fill="#444" d="M11.202 20.086l-3.774 11.914h31.147l-4.067-11.914h-23.306zM35.922 29.321l-25.592-0.071 2.18-7.876h20.907z"></path>
<path fill="#444" d="M7.425 13.514c0 2.050-1.662 3.713-3.713 3.713s-3.713-1.662-3.713-3.713c0-2.050 1.662-3.713 3.713-3.713s3.713 1.662 3.713 3.713z"></path>
<path fill="#444" d="M31.643 16.792h-2.821q-7.020 0-14.042 0c-0.322 0-0.451-0.074-0.438-0.383 0.026-0.544 0.023-1.092 0-1.636-0-0.014-0.001-0.031-0.001-0.047 0-0.612 0.325-1.148 0.811-1.446 1.313-0.944 2.798-1.811 4.363-2.533 0.444-0.146 0.643-0.395 0.643-0.691 0-0.027-0.002-0.054-0.005-0.081-0.029-0.783 0-1.571-0.019-2.357-0.049-0.203-0.131-0.382-0.242-0.54-0.151-0.317-0.428-0.639-0.444-0.961-0.055-1.111-0.048-2.228 0-3.342 0.048-1.478 1.253-2.611 2.898-2.737 1.059-0.084 2.106-0.068 3.001 0.58 0.75 0.503 1.238 1.347 1.24 2.305 0 1.005 0 2.010 0 3.017 0.001 0.016 0.001 0.035 0.001 0.054 0 0.463-0.208 0.877-0.536 1.154-0.103 0.097-0.169 0.23-0.176 0.377-0 0.887-0 1.769-0 2.655 0.004 0.222 0.159 0.406 0.367 0.453 1.736 0.805 3.215 1.664 4.606 2.64 0.533 0.368 0.871 0.874 0.823 1.608-0.064 0.605-0.029 1.233-0.029 1.909z"></path>
<path fill="#444" d="M1.529 18.080h1.932c2.749 0.006 4.975 2.235 4.975 4.985 0 0 0 0 0 0v5.223c0 0 0 0 0 0 0 0.57-0.461 1.033-1.030 1.037h-5.877c-0.573 0-1.037-0.464-1.037-1.037v-9.17c0-0.573 0.464-1.037 1.037-1.037z"></path>
</svg>
