<!-- Generated by IcoMoon.io -->
<svg version="1.1" xmlns="http://www.w3.org/2000/svg" width="37" height="32" viewBox="0 0 37 32">
<title>panther-component</title>
<path fill="#444" d="M8.908 32h-4.056c-0.013 0.001-0.028 0.001-0.044 0.001-0.58 0-1.050-0.47-1.050-1.050 0-0.026 0.001-0.052 0.003-0.078-0-1.48-0-2.964-0-4.448 0-0.12 0-0.237-0.025-0.461-0.469 0.21-0.878 0.376-1.271 0.573-0.234 0.135-0.516 0.215-0.816 0.215-0.519 0-0.982-0.239-1.285-0.613-0.223-0.28-0.357-0.634-0.357-1.020 0-0.42 0.158-0.803 0.418-1.093 0.304-0.321 0.735-0.522 1.213-0.522 0.326 0 0.63 0.093 0.887 0.255 0.237 0.135 0.521 0.262 0.818 0.36 0.288 0.102 0.427 0.034 0.421-0.282-0.014-0.886 0-1.776 0-2.665 0-0.663 0-1.326 0-1.988-0.003-0.027-0.004-0.059-0.004-0.091 0-0.554 0.449-1.004 1.004-1.004 0.032 0 0.064 0.002 0.095 0.004 1.433-0 2.874-0 4.311-0 0.447 0 0.494-0.041 0.352-0.461s-0.355-0.846-0.546-1.271c-0.077-0.183-0.122-0.396-0.122-0.62 0-0.904 0.733-1.637 1.637-1.637 0.443 0 0.845 0.176 1.14 0.462 0.278 0.301 0.449 0.705 0.449 1.149 0 0.324-0.091 0.627-0.249 0.885-0.159 0.313-0.3 0.687-0.402 1.077-0.085 0.299 0.024 0.419 0.321 0.416 1.517 0 3.036 0.022 4.552 0 0.818-0.019 1.323 0.417 1.29 1.282-0.049 1.257 0 2.518 0 3.775 0 0.123 0 0.243 0 0.472-0.273-0.142-0.472-0.235-0.66-0.357-0.363-0.258-0.816-0.412-1.304-0.412-1.129 0-2.066 0.825-2.24 1.905-0.029 0.142-0.045 0.291-0.045 0.443 0 0.727 0.359 1.37 0.909 1.761 0.377 0.304 0.854 0.485 1.373 0.485 0.372 0 0.723-0.093 1.029-0.257 0.28-0.131 0.564-0.281 0.888-0.447 0.015 0.086 0.028 0.192 0.035 0.299 0 1.313 0 2.617 0 3.921 0 0.004 0 0.009 0 0.014 0 0.577-0.468 1.045-1.045 1.045-0.004 0-0.008-0-0.012-0h-4.538c0.118-0.272 0.231-0.494 0.355-0.709 0.254-0.33 0.416-0.786 0.416-1.28 0-0.422-0.119-0.817-0.325-1.152-0.355-0.698-1.077-1.174-1.911-1.174-0.076 0-0.151 0.004-0.225 0.012-0.939 0.036-1.728 0.673-1.994 1.538-0.080 0.232-0.124 0.482-0.124 0.742 0 0.427 0.119 0.827 0.325 1.168 0.12 0.246 0.237 0.497 0.403 0.835z"></path>
<path fill="#444" d="M12.113 17.623c0.125-0.232 0.199-0.395 0.295-0.546 0.265-0.368 0.424-0.828 0.424-1.325 0-1.261-1.022-2.283-2.283-2.283-0.511 0-0.983 0.168-1.363 0.451-0.563 0.414-0.928 1.081-0.928 1.834 0 0.374 0.090 0.727 0.25 1.039 0.117 0.26 0.25 0.503 0.414 0.83h-4.176c-0.020 0.001-0.043 0.002-0.066 0.002-0.513 0-0.93-0.41-0.941-0.92-0.016-1.507-0-3.001-0-4.518 0.017-0.048 0.037-0.089 0.061-0.128 0.198 0.111 0.405 0.204 0.59 0.33 0.353 0.234 0.787 0.374 1.253 0.374 1.262 0 2.286-1.023 2.286-2.286 0-0.732-0.344-1.384-0.879-1.802-0.382-0.302-0.865-0.483-1.389-0.483-0.413 0-0.801 0.112-1.133 0.307-0.235 0.117-0.48 0.237-0.78 0.384 0-0.194-0.019-0.314-0.019-0.434q0-1.803 0-3.606c-0.004-0.035-0.007-0.075-0.007-0.116 0-0.541 0.438-0.979 0.979-0.979 0.033 0 0.066 0.002 0.098 0.005 1.48-0 2.964-0 4.445-0h0.447c-0.199-0.455-0.349-0.846-0.546-1.219-0.154-0.259-0.246-0.571-0.246-0.904 0-0.14 0.016-0.276 0.046-0.406 0.133-0.612 0.632-1.088 1.257-1.19 0.117-0.028 0.241-0.044 0.368-0.044 0.532 0 1.001 0.273 1.274 0.686 0.201 0.265 0.32 0.592 0.32 0.948 0 0.31-0.090 0.599-0.246 0.842-0.243 0.36-0.398 0.806-0.419 1.287l0.444 0.005h4.416c0.843 0 1.219 0.371 1.219 1.206q0 2.040 0 4.091c0 0.166 0 0.333 0 0.529 0.524 0.033 0.916-0.213 1.339-0.379 0.317-0.151 0.685-0.262 1.072-0.314 0.033-0.003 0.050-0.003 0.067-0.003 0.669 0 1.235 0.437 1.43 1.040 0.059 0.168 0.091 0.35 0.091 0.54 0 0.524-0.246 0.991-0.63 1.29-0.285 0.215-0.64 0.342-1.025 0.342-0.312 0-0.604-0.083-0.855-0.229-0.313-0.162-0.689-0.31-1.082-0.419-0.296-0.086-0.421 0.023-0.421 0.323 0 1.574 0 3.148 0 4.719 0 0.739-0.379 1.121-1.116 1.121h-4.337z"></path>
<path fill="#444" d="M20.58 14.71c0.136 0.215 0.273 0.393 0.368 0.586 0.347 0.774 1.11 1.303 1.997 1.303 0.053 0 0.105-0.002 0.156-0.006-0.005 0-0.003 0-0.001 0 0.904 0 1.677-0.559 1.994-1.349 0.139-0.289 0.217-0.612 0.217-0.953 0-0.599-0.241-1.142-0.632-1.536-0.421-0.452-1.020-0.734-1.684-0.734-0.011 0-0.022 0-0.033 0-0.271-0-0.527-0.033-0.86-0.055l0.335-0.584q0.881-1.536 1.762-3.071c0.156-0.322 0.481-0.54 0.856-0.54 0.171 0 0.332 0.045 0.471 0.125 1.277 0.72 2.551 1.462 3.814 2.196 0.060 0.045 0.114 0.091 0.164 0.14-0.219 0.133-0.401 0.272-0.601 0.368-0.76 0.383-1.273 1.157-1.273 2.051 0 0.303 0.059 0.591 0.165 0.856 0.328 0.836 1.143 1.429 2.095 1.429 0.27 0 0.528-0.047 0.768-0.134 0.829-0.26 1.444-1.001 1.519-1.896 0.041-0.36 0.052-0.714 0.082-1.151l0.846 0.486c0.886 0.51 1.776 1.017 2.659 1.53 0.589 0.341 0.739 0.859 0.398 1.459-0.731 1.293-1.473 2.575-2.209 3.865-0.057 0.104-0.106 0.21-0.205 0.406 0.51 0.052 0.949 0.112 1.391 0.134 1.317 0.071 2.076 1.416 1.399 2.498-0.293 0.469-0.807 0.776-1.392 0.776-0.612 0-1.146-0.336-1.426-0.834-0.282-0.422-0.551-0.778-0.838-1.118-0.121 0.231-0.195 0.338-0.257 0.45q-1.107 1.931-2.209 3.862c-0.436 0.761-0.911 0.886-1.672 0.45l-3.647-2.098c-0.335-0.191-0.423-0.169-0.502 0.215-0.070 0.363-0.128 0.808-0.161 1.261-0.050 0.905-0.763 1.589-1.637 1.589-0.599 0-1.123-0.322-1.408-0.802-0.132-0.238-0.207-0.513-0.207-0.806 0-0.622 0.34-1.165 0.844-1.453 0.363-0.244 0.673-0.503 0.953-0.791 0.195-0.184 0.162-0.356-0.097-0.5-1.364-0.761-2.692-1.541-4.045-2.302-0.33-0.185-0.606-0.409-0.644-0.818-0.006-0.041-0.009-0.088-0.009-0.136 0-0.162 0.036-0.316 0.102-0.454 0.704-1.259 1.432-2.514 2.155-3.771 0.044-0.052 0.088-0.099 0.136-0.144z"></path>
</svg>
