<!-- Generated by IcoMoon.io -->
<svg version="1.1" xmlns="http://www.w3.org/2000/svg" width="34" height="32" viewBox="0 0 34 32">
<title>panther-judge</title>
<path fill="#444" d="M10.4 20.628l-9.923-6.825c0.026-0.046 0.060-0.115 0.104-0.179 0.362-0.528 0.718-1.060 1.093-1.577 0.088-0.113 0.21-0.195 0.351-0.233 0.411-0.098 0.826-0.151 1.232-0.246 0.138-0.035 0.255-0.113 0.337-0.219q2.624-3.793 5.225-7.6c0.056-0.094 0.090-0.208 0.090-0.33 0-0.031-0.002-0.061-0.006-0.091-0.053-0.401-0.154-0.8-0.205-1.204-0.003-0.023-0.004-0.050-0.004-0.076 0-0.135 0.038-0.261 0.103-0.368 0.332-0.511 0.698-1.004 1.032-1.518 0.133-0.205 0.221-0.221 0.442-0.082q4.604 3.182 9.221 6.348c0.453 0.311 0.442 0.311 0.148 0.757s-0.592 0.883-0.912 1.325c-0.1 0.123-0.236 0.213-0.392 0.255-0.392 0.098-0.794 0.14-1.18 0.237-0.154 0.040-0.283 0.127-0.377 0.244-0.502 0.701-0.977 1.421-1.478 2.123-0.146 0.203-0.113 0.298 0.086 0.442q7.845 5.386 15.678 10.78c0.662 0.453 1.325 0.901 1.974 1.362 0.44 0.309 0.724 0.815 0.724 1.386 0 0.224-0.044 0.438-0.123 0.634-0.236 0.62-0.836 1.060-1.539 1.060-0.104 0-0.206-0.010-0.304-0.028-0.319-0.071-0.608-0.205-0.86-0.387q-6.909-4.734-13.812-9.49c-1.23-0.846-2.462-1.689-3.688-2.542-0.181-0.126-0.272-0.117-0.397 0.071-0.484 0.724-0.989 1.433-1.473 2.157-0.059 0.097-0.095 0.215-0.095 0.341 0 0.026 0.002 0.052 0.004 0.077 0.053 0.41 0.145 0.818 0.221 1.231 0.010 0.037 0.016 0.079 0.016 0.123 0 0.066-0.013 0.128-0.037 0.185-0.427 0.62-0.856 1.247-1.275 1.856z"></path>
<path fill="#444" d="M0 28.99h15.362v3.010h-15.362v-3.010z"></path>
</svg>
