<!-- Generated by IcoMoon.io -->
<svg version="1.1" xmlns="http://www.w3.org/2000/svg" width="37" height="32" viewBox="0 0 37 32">
<title>panther-promise-2</title>
<path fill="#808080" d="M36.604 15.076c-0.276-0.372-0.549-0.797-0.794-1.239-1.806-3.816-3.578-7.573-5.308-11.375-0.43-0.948-0.768-1.085-1.521-0.493-1.48 1.167-3.037 2.181-4.552 3.285-1.11 0.808-0.975 0.966-0.33 2.394 1.572 3.475 3.416 7.188 5.234 11.27 0.511 1.15 0.887 1.3 1.718 0.697 1.839-1.336 3.7-2.617 5.553-3.921v-0.626z"></path>
<path fill="#808080" d="M14.112 6.81c1.323-2.296 3.41-2.135 5.533 0.958 0.209 0.301 2.421-0.378 2.834 0.271 1.267 1.983 5.547 11.101 6.441 13.657 0.046 0.134 0.075 0.289 0.081 0.45 0.092 1.986-2.872 4.622-3.274 4.853-0.102 0.058-0.271-0.052-0.367 0.013-0.194 0.127-0.47 0.28-0.518 0.49-0.286 1.252-0.925 1.563-1.945 1.705-0.705 0.098-1.309 1.1-2.014 1.565-0.209 0.138-0.712-0.063-0.91-0.313-0.551-0.701-0.912-0.278-1.392 0.113-0.634 0.542-1.351 1.016-2.123 1.396-0.325 0.146-0.991-1.434-0.782-1.737 0.563-0.835 1.252-1.54 1.803-2.383 0.242-0.367-0.455-1.252-0.749-0.95-0.87 0.889-1.617 1.974-2.523 2.794-0.315 0.286-1.492-1.361-1.233-1.755 0.659-0.998 1.507-1.797 2.223-2.742 0.209-0.269-0.417-1.064-0.647-0.82-0.835 0.879-1.58 1.855-2.381 2.769-0.511 0.584-1.78-1.173-1.357-1.701 0.649-0.81 1.35-1.557 1.972-2.398v0c0.344-0.48-0.129-1.225-0.595-0.941-0.040 0.024-0.075 0.051-0.107 0.082-0.789 0.768-1.461 1.728-2.27 2.448-0.313 0.278-1.49-1.002-1.436-1.557 0.029-0.307 0.319-0.595 0.524-0.852 0.595-0.749-1.382-1.707-1.759-2.999-0.038-0.157 6.286-11.234 6.973-12.418zM15.749 7.417c-0.52 0.943-5.38 8.058-7.142 10.295-0.762 0.966-0.138 0.67 1.071 2.277 1.016 1.354 1.517-0.109 3.147-1.956 1.39-1.574 3.938-5.493 4.349-5.288 0.564 0.284 3.103 5.449 3.942 4.235 0.238-0.346 0.981-0.722 1.156-1.336 0.117-0.422-4.765-11.424-6.524-8.227zM25.019 25.66c0.259 0.292 1.377-0.937 1.177-1.271-0.639-1.073-2.314-3.965-2.615-3.878-0.165 0.044-0.791 0.835-0.922 1.073-0.055 0.101-0.087 0.221-0.087 0.349 0 0.111 0.024 0.216 0.068 0.311 0.102 0.221 1.616 2.556 2.379 3.416zM24.013 26.991c-0.782-1.299-1.563-2.412-2.414-3.466-0.095-0.119-1.192 1.026-1.078 1.208 0.745 1.183 1.563 2.296 2.375 3.41 0.096 0.134 1.258-0.91 1.117-1.152zM21.15 29.569c0.161-0.378 0.451-0.626 0.417-0.674-0.55-0.795-1.134-1.492-1.777-2.13-0.039-0.038-0.291 0.26-0.608 0.625-0.1 0.122-0.16 0.28-0.16 0.452 0 0.181 0.067 0.347 0.177 0.473 0.458 0.475 1.554 2.186 1.949 1.253z"></path>
<path fill="#808080" d="M0.205 13.094c1.989-4.274 3.965-8.557 5.998-12.802 0.115-0.242 0.743-0.371 0.985-0.209 1.732 1.156 3.921 2.982 5.66 4.126 0.912 0.599-4.032 9.018-5.771 13.048-0.376 0.872-0.714 1.252-1.438 0.739-1.709-1.21-3.416-2.421-5.111-3.659-0.223-0.163-0.371-0.482-0.528-0.695 0.098-0.28 0.142-0.426 0.205-0.549zM1.594 13.764c1.227 0.895 2.467 1.766 3.7 2.646 0.705 0.505 1.091 0.198 1.492-0.653 1.524-3.249 3.101-6.543 4.7-9.909 0.378-0.795 0.311-1.194-0.29-1.613-1.277-0.891-2.525-1.849-3.825-2.686-0.242-0.157-0.86-0.025-0.977 0.209-1.745 3.611-3.435 7.263-5.134 10.907-0.063 0.134-0.098 0.284-0.177 0.52 0.155 0.213 0.323 0.399 0.508 0.567z"></path>
<path fill="#fff" d="M26.853 23.702c0.196-0.47 0.993-1.221 0.881-1.415-0.593-1.025-1.102-2.465-1.847-3.325-0.077-0.088-0.852 1.002-1.194 1.269l1.991 3.494z"></path>
</svg>
