<!-- Generated by IcoMoon.io -->
<svg version="1.1" xmlns="http://www.w3.org/2000/svg" width="37" height="32" viewBox="0 0 37 32">
<title>panther-objective</title>
<path fill="#444" d="M0 0h19.752v2.207h-19.752v-2.207z"></path>
<path fill="#444" d="M2.639 6.446h26.41v2.207h-26.41v-2.207z"></path>
<path fill="#444" d="M10.741 12.575h25.638v2.207h-25.638v-2.207z"></path>
<path fill="#444" d="M6.694 18.69h12.321v2.207h-12.321v-2.207z"></path>
<path fill="#444" d="M3.238 25.024h14.455v2.207h-14.455v-2.207z"></path>
<path fill="#444" d="M29.018 16.062c0 0.236 0 0.472 0 0.708 0 0.128-0.057 0.143-0.157 0.143s-0.159-0.015-0.157-0.143q0-0.735 0-1.47c0-0.137 0.073-0.132 0.166-0.135s0.15 0.018 0.148 0.135c-0.004 0.258 0 0.508 0 0.761z"></path>
<path fill="#444" d="M31.971 17.71l0.828-1.481 0.269 0.157-0.572 1.026-0.146 0.26c-0.137 0.245-0.154 0.247-0.38 0.038z"></path>
<path fill="#444" d="M25.766 17.721l-0.269 0.157-0.836-1.498 0.265-0.166z"></path>
<path fill="#444" d="M35.979 27.663l-0.152 0.278-1.459-0.87 0.157-0.276z"></path>
<path fill="#444" d="M21.886 19.229l1.454 0.87-0.148 0.28-1.454-0.867z"></path>
<path fill="#444" d="M23.172 26.776l0.157 0.276-1.454 0.87-0.159-0.274z"></path>
<path fill="#444" d="M33.050 30.797l-0.267 0.159-0.839-1.503 0.263-0.168z"></path>
<path fill="#444" d="M20.732 23.724c-0.057-0.296-0.049-0.309 0.221-0.309 0.422 0 0.843 0 1.265 0 0.108 0 0.179 0 0.183 0.154s-0.075 0.166-0.19 0.166c-0.441 0-0.883 0-1.324 0-0.049-0.011-0.104-0.011-0.154-0.011z"></path>
<path fill="#444" d="M36.981 23.786c-0.532 0-1.055-0.015-1.578-0.018-0.121 0-0.095-0.115-0.084-0.179 0.010-0.052 0.047-0.093 0.096-0.108 0.013-0.001 0.028-0.001 0.042-0.001 0.094 0 0.186 0.008 0.275 0.024l1.017-0.001c0.276 0 0.276-0.033 0.232 0.282z"></path>
<path fill="#444" d="M24.638 30.786l0.841-1.505 0.269 0.157-0.839 1.505z"></path>
<path fill="#444" d="M34.534 20.394l-0.157-0.276 1.452-0.867 0.166 0.269z"></path>
<path fill="#444" d="M28.774 30.316h0.276v1.684h-0.276v-1.684z"></path>
<path fill="#444" d="M28.506 17.876h0.662v5.537h-0.662v-5.537z"></path>
<path fill="#444" d="M28.272 23.145l3.777-2.18 0.374 0.648-3.777 2.18-0.374-0.648z"></path>
</svg>
